<svg id="Layer_1" data-name="Layer 1" xmlns="http://www.w3.org/2000/svg" viewBox="0 0 379.26 337.41"><defs><style>.cls-1{fill:#28284a;}.cls-10,.cls-14,.cls-15,.cls-2,.cls-4{fill:#fff;}.cls-15,.cls-2,.cls-7,.cls-8{stroke:#28284a;}.cls-10,.cls-11,.cls-2,.cls-3,.cls-4,.cls-5{stroke-miterlimit:10;}.cls-11,.cls-3,.cls-6{fill:#c9d8e0;}.cls-10,.cls-11,.cls-12,.cls-13,.cls-3,.cls-4,.cls-5,.cls-9{stroke:#c9d8e0;}.cls-3,.cls-4,.cls-5{stroke-width:0.73px;}.cls-12,.cls-13,.cls-5,.cls-7,.cls-8,.cls-9{fill:none;}.cls-12,.cls-13,.cls-15,.cls-7,.cls-8,.cls-9{stroke-linecap:round;stroke-linejoin:round;}.cls-7{stroke-width:0.85px;}.cls-8{stroke-width:1.7px;}.cls-9{stroke-width:1.13px;}.cls-10{stroke-width:0.28px;}.cls-12{stroke-width:0.83px;}.cls-13{stroke-width:1.56px;}</style></defs><title>404</title><ellipse class="cls-1" cx="260.16" cy="158.19" rx="5.14" ry="2.54"/><polygon class="cls-2" points="175.43 146.52 175.43 222.9 239.44 185.94 239.44 109.57 175.43 146.52"/><polygon class="cls-2" points="113.84 110.96 175.43 146.52 175.43 222.9 113.84 187.34 113.84 110.96"/><rect class="cls-3" x="226.39" y="142.68" width="6.45" height="13.59"/><polygon class="cls-4" points="318.82 161.05 232.82 156.27 232.82 142.68 318.82 137.89 318.82 161.05"/><ellipse class="cls-4" cx="318.84" cy="149.47" rx="5.02" ry="11.58"/><path class="cls-5" d="M316.33,137.89c2.77,0,5,5.18,5,11.58s-2.25,11.58-5,11.58"/><path class="cls-3" d="M226.86,156.27c-1.63,0-2.94-3-2.94-6.8s1.32-6.8,2.94-6.8"/><path class="cls-6" d="M269.14,158.32c-2.12,0-3.84-3.93-3.84-8.78s1.72-8.78,3.84-8.78l3.46-.19c-2.14,0-3.88,4-3.88,9s1.74,9,3.88,9Z"/><polyline class="cls-7" points="191.25 158.05 199.75 157.62 193.38 163.57"/><path class="cls-8" d="M141.53,164.42S174,198.06,249.9,186.64"/><line class="cls-8" x1="144.5" y1="205.65" x2="144.5" y2="232.15"/><line class="cls-8" x1="206.98" y1="204.8" x2="206.98" y2="231.6"/><path class="cls-8" d="M260.16,160.73s-1.62,16.27-20.32,12.45"/><path class="cls-9" d="M226.58,193.36c12.29,4.34,19.83,10.21,19.83,16.66,0,13.38-32.4,24.23-72.37,24.23S101.67,223.41,101.67,210c0-6.69,8.1-12.75,21.2-17.13"/><path class="cls-9" d="M246.41,210,231.22,278.2c0,7.75-25.6,14-57.18,14s-57.18-6.28-57.18-14L101.67,210"/><path class="cls-9" d="M231.22,274.51c0,7.75-25.6,14-57.18,14s-57.18-6.28-57.18-14"/><line class="cls-9" x1="165.75" y1="292.23" x2="165.75" y2="332.59"/><line class="cls-9" x1="184.88" y1="292.23" x2="184.88" y2="332.59"/><line class="cls-9" x1="178.93" y1="299.44" x2="178.93" y2="321.54"/><line class="cls-9" x1="178.93" y1="327.5" x2="178.93" y2="336.84"/><line class="cls-10" x1="317.38" y1="142.68" x2="319.67" y2="148.07"/><line class="cls-10" x1="316.81" y1="145.99" x2="317.69" y2="147.97"/><ellipse class="cls-1" cx="260.53" cy="140.76" rx="3.12" ry="1.42"/><circle class="cls-1" cx="249.9" cy="186.64" r="4.54"/><ellipse class="cls-1" cx="254.44" cy="185.88" rx="4.54" ry="2"/><line class="cls-9" x1="172.66" y1="77.62" x2="172.66" y2="10.22"/><line class="cls-9" x1="176.53" y1="75.38" x2="176.53" y2="10.22"/><circle class="cls-11" cx="174.61" cy="5.25" r="4.75"/><line class="cls-9" x1="74.21" y1="87.54" x2="46.68" y2="87.54"/><line class="cls-9" x1="37.33" y1="87.54" x2="25.08" y2="87.54"/><line class="cls-9" x1="99.27" y1="87.54" x2="92.69" y2="87.54"/><line class="cls-9" x1="353.64" y1="192.9" x2="313.6" y2="192.9"/><line class="cls-9" x1="304.25" y1="192.9" x2="292" y2="192.9"/><line class="cls-9" x1="378.7" y1="192.9" x2="372.12" y2="192.9"/><line class="cls-9" x1="61.11" y1="192.9" x2="22.85" y2="192.9"/><path class="cls-12" d="M312.1,89.13s0-.08,0-.12a15,15,0,0,0-28.37-6.8,11,11,0,1,0-1.63,21.8h26.48a7.85,7.85,0,0,0,3.51-14.88Z"/><path class="cls-13" d="M45.35,48.86s0-.09,0-.13a16.33,16.33,0,0,0-30.88-7.4,11.93,11.93,0,1,0-1.77,23.72H41.53a8.55,8.55,0,0,0,3.82-16.19Z"/><path class="cls-6" d="M195.79,26.92a3,3,0,0,1,1,2.39,3.28,3.28,0,0,1-1,2.54,3.88,3.88,0,0,1-2.74.9h-1.65V35.3H189V26.07h4.06A4,4,0,0,1,195.79,26.92Zm-1.72,3.54a1.38,1.38,0,0,0,.4-1.07,1.32,1.32,0,0,0-.4-1,1.64,1.64,0,0,0-1.14-.36h-1.53v2.83h1.53A1.62,1.62,0,0,0,194.07,30.45Z"/><path class="cls-6" d="M204,35.3l-.63-1.63h-4l-.65,1.63h-2.48l4-9.23h2.48l3.87,9.23Zm-3.9-3.48h2.56l-1.26-3.29Z"/><path class="cls-6" d="M213.3,30.59h2.08v3.68a6.17,6.17,0,0,1-1.81.88,6.83,6.83,0,0,1-2,.34,5.1,5.1,0,0,1-2.52-.63,4.63,4.63,0,0,1-1.77-1.72,4.72,4.72,0,0,1-.65-2.45,4.56,4.56,0,0,1,.67-2.43,4.67,4.67,0,0,1,1.83-1.71,5.46,5.46,0,0,1,2.6-.62,6,6,0,0,1,2.06.38,5.36,5.36,0,0,1,1.74,1L214.12,29a3.84,3.84,0,0,0-1.15-.75,3.27,3.27,0,0,0-1.28-.28,2.53,2.53,0,0,0-1.33.36,2.56,2.56,0,0,0-.94,1,2.81,2.81,0,0,0-.34,1.38,2.87,2.87,0,0,0,.34,1.4,2.52,2.52,0,0,0,.95,1,2.61,2.61,0,0,0,1.34.36A3.64,3.64,0,0,0,213.3,33Z"/><path class="cls-6" d="M217,26.07h7.28V28h-4.87v1.73h4.4v1.91h-4.4v1.74h5V35.3H217Z"/><path class="cls-6" d="M195.3,41.42h2.24v9.23h-2.11l-4.19-5.52v5.52H189V41.42h2.12l4.2,5.56Z"/><path class="cls-6" d="M206.3,41.89A4.59,4.59,0,0,1,208.74,46a4.67,4.67,0,0,1-2.44,4.18,5.48,5.48,0,0,1-5.1,0,4.63,4.63,0,0,1-1.79-1.73,4.73,4.73,0,0,1-.65-2.46,4.59,4.59,0,0,1,2.44-4.12,5.56,5.56,0,0,1,5.1,0Zm-3.79,1.78a2.57,2.57,0,0,0-.93,1,2.94,2.94,0,0,0,0,2.77,2.68,2.68,0,0,0,.93,1,2.34,2.34,0,0,0,1.26.36,2.31,2.31,0,0,0,1.26-.36,2.55,2.55,0,0,0,.9-1,3.07,3.07,0,0,0,0-2.77,2.5,2.5,0,0,0-.9-1,2.34,2.34,0,0,0-1.26-.36A2.4,2.4,0,0,0,202.5,43.67Z"/><path class="cls-6" d="M208.83,41.42h7.92v2H214v7.25h-2.41V43.41h-2.74Z"/><path class="cls-6" d="M220.65,41.42h6.9v1.92h-4.48V45.4h4.14v1.92h-4.14v3.33h-2.41Z"/><path class="cls-6" d="M235.59,41.89A4.59,4.59,0,0,1,238,46a4.67,4.67,0,0,1-2.44,4.18,5.48,5.48,0,0,1-5.1,0,4.63,4.63,0,0,1-1.79-1.73,4.73,4.73,0,0,1-.65-2.46,4.59,4.59,0,0,1,2.44-4.12,5.56,5.56,0,0,1,5.1,0Zm-3.79,1.78a2.57,2.57,0,0,0-.93,1,2.94,2.94,0,0,0,0,2.77,2.68,2.68,0,0,0,.93,1,2.34,2.34,0,0,0,1.26.36,2.31,2.31,0,0,0,1.26-.36,2.55,2.55,0,0,0,.9-1,3.07,3.07,0,0,0,0-2.77,2.5,2.5,0,0,0-.9-1,2.34,2.34,0,0,0-1.26-.36A2.4,2.4,0,0,0,231.8,43.67Z"/><path class="cls-6" d="M242,48.24a1.74,1.74,0,0,0,1.3.53,1.63,1.63,0,0,0,1.26-.52,2,2,0,0,0,.48-1.4V41.42h2.41v5.43a4.22,4.22,0,0,1-.51,2.1,3.43,3.43,0,0,1-1.45,1.39,4.74,4.74,0,0,1-2.21.49,4.82,4.82,0,0,1-2.22-.49,3.5,3.5,0,0,1-1.48-1.39,4.13,4.13,0,0,1-.52-2.1V41.42h2.41v5.43A1.91,1.91,0,0,0,242,48.24Z"/><path class="cls-6" d="M255.41,41.42h2.24v9.23h-2.11l-4.19-5.52v5.52H249.1V41.42h2.12l4.2,5.56Z"/><path class="cls-6" d="M266,42a4.25,4.25,0,0,1,1.73,1.63,5,5,0,0,1,0,4.81A4.23,4.23,0,0,1,266,50.07a5.69,5.69,0,0,1-2.62.58h-3.89V41.42h4A5.47,5.47,0,0,1,266,42Zm-1.26,6.38a2.24,2.24,0,0,0,.84-.94,3.05,3.05,0,0,0,.3-1.38,2.93,2.93,0,0,0-.32-1.4,2.36,2.36,0,0,0-.89-.94,2.49,2.49,0,0,0-1.29-.34h-1.51V48.7h1.63A2.33,2.33,0,0,0,264.74,48.38Z"/><path class="cls-6" d="M170.46,66.1C146.35,48,118.9,59,94.79,40.93,123.84,49,141.4,7.69,170.46,15.75Q170.46,40.93,170.46,66.1Z"/><path class="cls-14" d="M139.28,39.41V42l-1.68.53v2.82c-1.26.4-1.88.61-3.14,1V43.57c-2.37.8-3.56,1.22-5.93,2V43.25c1.49-3.67,2.23-5.52,3.72-9.21l3.25-1.1L132,41.8l2.45-.83V38.19c1.26-.42,1.88-.63,3.14-1v2.79Z"/><path class="cls-14" d="M150.78,30.78a6.74,6.74,0,0,1,1.5,4.81,7.87,7.87,0,0,1-1.5,5.07,7,7,0,0,1-4.29,2.4c-1.88.38-3.32.19-4.33-.69s-1.5-2.37-1.5-4.52a9.1,9.1,0,0,1,1.5-5.36,6.76,6.76,0,0,1,4.33-2.76A4.39,4.39,0,0,1,150.78,30.78Zm-6.07,2.84a7.66,7.66,0,0,0-.54,3.28,6,6,0,0,0,.54,3,1.54,1.54,0,0,0,1.78.57,2.4,2.4,0,0,0,1.75-1.29,7.34,7.34,0,0,0,.55-3.25,6.11,6.11,0,0,0-.55-3.06,1.52,1.52,0,0,0-1.75-.64A2.43,2.43,0,0,0,144.72,33.62Z"/><path class="cls-14" d="M163.76,38.19v2.6c-.67-.24-1-.34-1.68-.53v2.82a22.5,22.5,0,0,0-3.14-.67V39.58a25.27,25.27,0,0,0-5.93-.3V37c1.49-3.25,2.23-4.84,3.72-7.91a23.39,23.39,0,0,1,3.25.43c-1.4,2.8-2.1,4.25-3.5,7.24a23.77,23.77,0,0,1,2.45.27V34.2a22.5,22.5,0,0,1,3.14.67v2.79C162.75,37.84,163.09,37.95,163.76,38.19Z"/><polygon class="cls-2" points="93.69 304.85 68.11 304.85 81.84 292.45 68.11 280.06 93.69 280.06 93.69 304.85"/><polygon class="cls-15" points="87.78 297.56 93.69 304.85 93.69 297.56 87.78 297.56"/><polygon class="cls-2" points="259.88 304.85 285.45 304.85 271.73 292.45 285.45 280.06 259.88 280.06 259.88 304.85"/><polygon class="cls-15" points="265.78 297.56 259.88 304.85 259.88 297.56 265.78 297.56"/><polygon class="cls-2" points="175.43 146.52 113.84 110.96 177.84 74.01 239.44 109.57 175.43 146.52"/><rect class="cls-2" x="87.78" y="267.56" width="178" height="30"/><path class="cls-1" d="M120.84,282.77h2v3.55a6,6,0,0,1-1.75.85,6.61,6.61,0,0,1-2,.32,4.93,4.93,0,0,1-2.44-.6,4.47,4.47,0,0,1-1.71-1.66,4.57,4.57,0,0,1-.62-2.37,4.41,4.41,0,0,1,.64-2.35,4.5,4.5,0,0,1,1.77-1.65,5.27,5.27,0,0,1,2.51-.6,5.77,5.77,0,0,1,2,.36,5.17,5.17,0,0,1,1.68,1l-1.32,1.63a3.72,3.72,0,0,0-1.11-.73,3.17,3.17,0,0,0-1.24-.27,2.45,2.45,0,0,0-2.19,1.29,2.71,2.71,0,0,0-.33,1.34,2.78,2.78,0,0,0,.33,1.36,2.43,2.43,0,0,0,.92.95,2.51,2.51,0,0,0,1.3.34,3.52,3.52,0,0,0,1.54-.43Z"/><path class="cls-1" d="M131.11,278.86a4.44,4.44,0,0,1,2.36,4,4.52,4.52,0,0,1-2.36,4,5.3,5.3,0,0,1-4.93,0,4.48,4.48,0,0,1-1.73-1.67,4.57,4.57,0,0,1-.63-2.37,4.44,4.44,0,0,1,2.36-4,5.37,5.37,0,0,1,4.93,0Zm-3.67,1.72a2.47,2.47,0,0,0-.9.95,2.84,2.84,0,0,0,0,2.67,2.59,2.59,0,0,0,.9,1,2.26,2.26,0,0,0,1.22.35,2.23,2.23,0,0,0,1.22-.35,2.46,2.46,0,0,0,.87-1,3,3,0,0,0,0-2.67,2.41,2.41,0,0,0-.87-.95,2.26,2.26,0,0,0-1.22-.34A2.32,2.32,0,0,0,127.44,280.58Z"/><path class="cls-1" d="M136.68,278.4h7.65v1.92h-2.67v7h-2.33v-7h-2.65Z"/><path class="cls-1" d="M151.54,278.86a4.44,4.44,0,0,1,2.36,4,4.52,4.52,0,0,1-2.36,4,5.3,5.3,0,0,1-4.93,0,4.48,4.48,0,0,1-1.73-1.67,4.57,4.57,0,0,1-.63-2.37,4.44,4.44,0,0,1,2.36-4,5.37,5.37,0,0,1,4.93,0Zm-3.67,1.72a2.47,2.47,0,0,0-.9.95,2.84,2.84,0,0,0,0,2.67,2.59,2.59,0,0,0,.9,1,2.26,2.26,0,0,0,1.22.35,2.23,2.23,0,0,0,1.22-.35,2.46,2.46,0,0,0,.87-1,3,3,0,0,0,0-2.67,2.41,2.41,0,0,0-.87-.95,2.26,2.26,0,0,0-1.22-.34A2.32,2.32,0,0,0,147.87,280.58Z"/><path class="cls-1" d="M163.88,278.67a2.57,2.57,0,0,1,1.15.78,1.86,1.86,0,0,1,.41,1.2,1.91,1.91,0,0,1-.41,1.22,2.08,2.08,0,0,1-1.13.71,2.19,2.19,0,0,1,1.34.78,2.29,2.29,0,0,1,.49,1.48,2.16,2.16,0,0,1-.42,1.32,2.61,2.61,0,0,1-1.2.87,5,5,0,0,1-1.82.3h-4.41V278.4h4.24A5.07,5.07,0,0,1,163.88,278.67Zm-1.11,3a.81.81,0,0,0,.28-.66.76.76,0,0,0-.28-.63,1.14,1.14,0,0,0-.76-.21h-1.78V282H162A1.15,1.15,0,0,0,162.76,281.72Zm.2,3.55a.83.83,0,0,0,.36-.71.78.78,0,0,0-.36-.67,1.61,1.61,0,0,0-1-.24h-1.78v1.87H162A1.64,1.64,0,0,0,163,285.26Z"/><path class="cls-1" d="M167,278.4h2.33v6.94h3.78v2H167Z"/><path class="cls-1" d="M180.89,278.86a4.44,4.44,0,0,1,2.36,4,4.52,4.52,0,0,1-2.36,4,5.3,5.3,0,0,1-4.93,0,4.48,4.48,0,0,1-1.73-1.67,4.57,4.57,0,0,1-.63-2.37,4.44,4.44,0,0,1,2.36-4,5.37,5.37,0,0,1,4.93,0Zm-3.67,1.72a2.47,2.47,0,0,0-.9.95,2.84,2.84,0,0,0,0,2.67,2.59,2.59,0,0,0,.9,1,2.26,2.26,0,0,0,1.22.35,2.23,2.23,0,0,0,1.22-.35,2.46,2.46,0,0,0,.87-1,3,3,0,0,0,0-2.67,2.41,2.41,0,0,0-.87-.95,2.26,2.26,0,0,0-1.22-.34A2.32,2.32,0,0,0,177.22,280.58Z"/><path class="cls-1" d="M189.68,280.56a2.48,2.48,0,0,0-1.18-.32,2.32,2.32,0,0,0-1.23.34,2.4,2.4,0,0,0-.87.93,2.89,2.89,0,0,0,0,2.64,2.4,2.4,0,0,0,.87.93,2.32,2.32,0,0,0,1.23.34,2.71,2.71,0,0,0,1.15-.28,3.64,3.64,0,0,0,1.07-.76l1.36,1.46a5.44,5.44,0,0,1-1.73,1.22,4.79,4.79,0,0,1-4.37-.16,4.46,4.46,0,0,1-1.68-1.67,4.63,4.63,0,0,1-.61-2.37,4.45,4.45,0,0,1,2.34-4,5.07,5.07,0,0,1,4.4-.18,4.87,4.87,0,0,1,1.64,1.13l-1.35,1.63A3.35,3.35,0,0,0,189.68,280.56Z"/><path class="cls-1" d="M201.65,287.33h-2.79l-2.34-3.46-1.12,1.25v2.22h-2.33V278.4h2.33v3.87l3.35-3.87h2.7l-3.31,3.68Z"/><path class="cls-1" d="M207.23,280.4a4.5,4.5,0,0,0-1.36-.27,1.26,1.26,0,0,0-.68.16.52.52,0,0,0-.25.46.63.63,0,0,0,.22.49,1.64,1.64,0,0,0,.54.32q.32.12.94.31a12.3,12.3,0,0,1,1.53.53,2.69,2.69,0,0,1,1,.82,2.28,2.28,0,0,1,.43,1.45,2.47,2.47,0,0,1-.47,1.52,2.86,2.86,0,0,1-1.29.95,5,5,0,0,1-1.83.32,6.6,6.6,0,0,1-2.21-.39,6,6,0,0,1-1.9-1.06l.9-1.82a5.6,5.6,0,0,0,1.6,1,4.35,4.35,0,0,0,1.64.38,1.52,1.52,0,0,0,.82-.19.62.62,0,0,0,.3-.56.66.66,0,0,0-.22-.51,1.64,1.64,0,0,0-.56-.33q-.34-.12-.95-.29a11.71,11.71,0,0,1-1.51-.52,2.68,2.68,0,0,1-1-.79,2.18,2.18,0,0,1-.43-1.41,2.46,2.46,0,0,1,.44-1.45,2.8,2.8,0,0,1,1.25-1,4.85,4.85,0,0,1,1.88-.34,6.82,6.82,0,0,1,1.91.27,6.27,6.27,0,0,1,1.65.73l-.88,1.86A7.85,7.85,0,0,0,207.23,280.4Z"/><path class="cls-1" d="M213.65,278.4H216v6.94h3.78v2h-6.11Z"/><path class="cls-1" d="M220.82,278.4h2.33v8.93h-2.33Z"/><path class="cls-1" d="M229.51,280.4a4.5,4.5,0,0,0-1.36-.27,1.26,1.26,0,0,0-.68.16.52.52,0,0,0-.25.46.63.63,0,0,0,.22.49,1.64,1.64,0,0,0,.54.32q.32.12.94.31a12.3,12.3,0,0,1,1.53.53,2.69,2.69,0,0,1,1,.82,2.28,2.28,0,0,1,.43,1.45,2.47,2.47,0,0,1-.47,1.52,2.86,2.86,0,0,1-1.29.95,5,5,0,0,1-1.83.32,6.6,6.6,0,0,1-2.21-.39,6,6,0,0,1-1.9-1.06l.9-1.82a5.6,5.6,0,0,0,1.6,1,4.35,4.35,0,0,0,1.64.38,1.52,1.52,0,0,0,.82-.19.62.62,0,0,0,.3-.56.66.66,0,0,0-.22-.51,1.64,1.64,0,0,0-.56-.33q-.34-.12-.95-.29a11.71,11.71,0,0,1-1.51-.52,2.68,2.68,0,0,1-1-.79,2.18,2.18,0,0,1-.43-1.41,2.46,2.46,0,0,1,.44-1.45,2.8,2.8,0,0,1,1.25-1,4.85,4.85,0,0,1,1.88-.34,6.82,6.82,0,0,1,1.91.27,6.27,6.27,0,0,1,1.65.73l-.88,1.86A7.85,7.85,0,0,0,229.51,280.4Z"/><path class="cls-1" d="M232.33,278.4H240v1.92h-2.67v7H235v-7h-2.65Z"/></svg>