<?xml version="1.0" encoding="utf-8"?>
<!-- Generator: Adobe Illustrator 21.0.0, SVG Export Plug-In . SVG Version: 6.00 Build 0)  -->
<svg version="1.1" id="Capa_1" xmlns="http://www.w3.org/2000/svg" xmlns:xlink="http://www.w3.org/1999/xlink" x="0px" y="0px"
	 viewBox="0 0 398 404" style="enable-background:new 0 0 398 404;" xml:space="preserve">
<style type="text/css">
	.st0{opacity:0.6736;}
	.st1{opacity:0.1933;fill:#CAECFF;enable-background:new    ;}
	.st2{opacity:0.2432;fill:#CAECFF;enable-background:new    ;}
	.st3{fill:#FFFFFF;stroke:#ABABAB;stroke-width:1.1088;}
	.st4{opacity:0.8043;fill:#940F08;enable-background:new    ;}
	.st5{fill:none;stroke:#B9D0DC;stroke-width:1.6632;stroke-linecap:round;stroke-linejoin:round;}
	.st6{opacity:0.2016;}
	.st7{fill:none;stroke:#C7DBE5;stroke-width:1.6632;stroke-linecap:round;stroke-linejoin:round;}
	
		.st8{opacity:0.4998;fill:none;stroke:#515050;stroke-width:0.792;stroke-linecap:square;stroke-dasharray:4;enable-background:new    ;}
	.st9{fill:#142C3C;stroke:#142C3C;stroke-width:0.7207;}
	.st10{fill:none;stroke:#142C3C;stroke-width:1.4414;}
	.st11{fill:#FFFFFF;stroke:#142C3C;stroke-width:1.4414;stroke-linecap:round;stroke-linejoin:round;}
	.st12{fill:none;stroke:#142C3C;stroke-width:1.0811;}
	.st13{fill:none;stroke:#8BADC5;stroke-width:1.4414;}
	.st14{fill:#8BADC5;}
	.st15{fill:#FFFFFF;stroke:#8BADC5;stroke-width:1.4414;}
	.st16{fill:#FFFFFF;}
	.st17{font-family:'Montserrat-Bold';}
	.st18{font-size:9px;}
</style>
<title>Group 13</title>
<desc>Created with Sketch.</desc>
<g id="Explorer-Error">
	<g id="_x30_1B-BlockchainSettings-errorOp3" transform="translate(-382.000000, -117.000000)">
		<g id="Group-20" transform="translate(382.000000, 115.000000)">
			<g id="Group-13">
				<g id="Group-21">
					<g id="Group-12" transform="translate(0.000000, 20.000000)">
						<g id="Background" class="st0">
							<path id="Fill-4" class="st1" d="M76.4,43.5c-61,2.1-61,57.5-31,83.5s-39.6,32.9-30,104c6.3,40.6,65.1,50.5,61,75.5
								c-2.2,15.1-45.6,79,90.8,79s136.2-69.8,100.2-95.3c-43.4-30.7,39.3-59.2,36-115.2c-1.8-30.6-59.5-35-58.8-65.3
								c-1-12.3,15.5-35.8,14.8-49.5c0.4-21.8-17.5-65.4-92.3-59.7S137.3,41.5,76.4,43.5z"/>
							<path id="Fill-6" class="st2" d="M266.5,96.8c0,13,31.1,15.4,32.7,0C300.8,81.4,266.5,77.2,266.5,96.8"/>
							<path id="Fill-7" class="st2" d="M14.4,317c0,13.9,38.5,16.6,39.9,0C56.1,296.5,14.4,292.7,14.4,317"/>
							<path id="Fill-8" class="st2" d="M283.1,270.6c0,16.3,46,19.5,47.7,0C332.8,246.6,283.1,242,283.1,270.6"/>
							<path id="Fill-9" class="st2" d="M0,147.1c0,9,21.4,10.7,22.2,0C23.1,133.9,0,131.4,0,147.1"/>
						</g>
						<g id="Group-18" transform="translate(88.755952, 126.771739)">
							<path id="Rectangle" class="st3" d="M3.9,0.6L3.9,0.6c1.8,0,3.3,1.5,3.3,3.3v202.8c0,1.8-1.5,3.3-3.3,3.3l0,0
								c-1.8,0-3.3-1.5-3.3-3.3V3.9C0.6,2,2,0.6,3.9,0.6z"/>
							<path id="Rectangle-Copy" class="st4" d="M3.8,2L3.8,2c1,0,1.8,0.8,1.8,1.8v202.1c0,1-0.8,1.8-1.8,1.8l0,0
								c-1,0-1.8-0.8-1.8-1.8V3.8C2,2.8,2.8,2,3.8,2z"/>
						</g>
						<g id="Cube" transform="translate(97.000000, 86.000000)">
							<polygon id="Fill-13-Copy-3" class="st5" points="72.8,0.1 72.8,0.1 72.8,0.1 72.8,0.1 72.8,0.1 27.9,25.7 72.8,51.7 
								72.8,51.7 72.8,51.7 72.8,51.7 73.2,51.4 117.7,26 							"/>
							<g id="Group-15" transform="translate(28.371032, 51.057971)">
								<g id="Group-16" transform="translate(0.000000, 26.572464)">
									<polygon id="Fill-31-Copy-3" class="st5" points="45.2,25.4 44.8,25.6 89.7,0 									"/>
									<polygon id="Fill-31-Copy-7" class="st5" points="45.2,77.8 44.8,78.1 89.7,52.4 									"/>
									<polygon id="Fill-31-Copy-11" class="st5" points="45.2,129.6 44.8,129.8 89.7,104.2 									"/>
									<polygon id="Fill-31-Copy-15" class="st5" points="45.2,182 44.8,182.3 89.7,156.6 									"/>
									<polygon id="Fill-31-Copy-4" class="st5" points="43.8,25.4 44.2,25.6 0,0.7 									"/>
									<polygon id="Fill-31-Copy-8" class="st5" points="43.8,77.9 44.2,78.1 0,53.1 									"/>
									<polygon id="Fill-31-Copy-12" class="st5" points="43.8,129.6 44.2,129.8 0,104.9 									"/>
									<polygon id="Fill-31-Copy-16" class="st5" points="43.8,182 44.2,182.3 0,157.3 									"/>
								</g>
								
									<g id="Group-16-Copy" transform="translate(45.175595, 91.605072) scale(1, -1) translate(-45.175595, -91.605072) " class="st6">
									<g id="Group-17" transform="translate(0.000000, 156.637681)">
										<polygon id="Fill-31-Copy-3_1_" class="st5" points="45.2,25.4 44.8,25.6 89.7,0 										"/>
										<polygon id="Fill-31-Copy-4_1_" class="st5" points="44.5,26.1 44.9,26.3 0,0.7 										"/>
									</g>
									<polygon id="Fill-31-Copy-9" class="st5" points="45.2,129.6 44.8,129.8 89.7,104.2 									"/>
									<polygon id="Fill-31-Copy-13" class="st5" points="45.2,77.8 44.8,78.1 89.7,52.4 									"/>
									<polygon id="Fill-31-Copy-17" class="st5" points="45.2,25.4 44.8,25.6 89.7,0 									"/>
									<polygon id="Fill-31-Copy-10" class="st5" points="44.5,130.3 44.9,130.5 0,104.9 									"/>
									<polygon id="Fill-31-Copy-14" class="st5" points="44.5,78.5 44.9,78.8 0,53.1 									"/>
									<polygon id="Fill-31-Copy-18" class="st5" points="44.5,26.1 44.9,26.3 0,0.7 									"/>
								</g>
							</g>
							<path id="Line-4" class="st5" d="M27.7,25.5v209.1"/>
							<path id="Line-4-Copy" class="st5" d="M118.2,25.8V234"/>
							<path id="Line-4-Copy-3" class="st7" d="M72.7,52.7v206.6"/>
							<path id="Line-3-Copy-3" class="st8" d="M0.5,40l27-14.5"/>
							<path id="Line-3-Copy-4" class="st8" d="M0.5,249l27-14.5"/>
						</g>
					</g>
					<g id="Group-11" transform="translate(140.000000, 0.000000)">
						
							<ellipse id="Oval-Copy-2" transform="matrix(0.9703 -0.2419 0.2419 0.9703 -16.1287 31.4274)" class="st9" cx="119.9" cy="81.4" rx="1.1" ry="2.5"/>
						<g id="Character" transform="translate(0.000000, 42.704900)">
							
								<g id="Group-5" transform="translate(88.123151, 106.645963) rotate(14.000000) translate(-88.123151, -106.645963) translate(75.865167, 84.336874)">
								<path id="Path-4" class="st10" d="M0,0c16.8,5.8,23.3,19,19.4,39.6"/>
								
									<ellipse id="Oval" transform="matrix(-0.8387 0.5446 -0.5446 -0.8387 60.7053 64.031)" class="st9" cx="20.9" cy="41" rx="1.8" ry="2.9"/>
							</g>
							
								<g id="Group-5-Copy" transform="translate(72.259878, 115.281739) rotate(14.000000) translate(-72.259878, -115.281739) translate(60.001894, 92.972651)">
								<path id="Path-4_1_" class="st10" d="M0,0c16.8,5.8,23.3,19,19.4,39.6"/>
								
									<ellipse id="Oval_1_" transform="matrix(-0.6947 0.7193 -0.7193 -0.6947 64.8795 54.5233)" class="st9" cx="20.9" cy="41" rx="1.8" ry="2.9"/>
							</g>
							<g id="Group-2" transform="translate(0.157980, 0.000000)">
								
									<g id="Group-5-Copy-2" transform="translate(93.611153, 46.875598) scale(-1, 1) rotate(134.000000) translate(-93.611153, -46.875598) translate(83.155814, 26.725453)">
									<path id="Path-4_2_" class="st10" d="M0,0c16.8,5.8,23.3,19,19.4,39.6"/>
								</g>
								<g id="Group-9">
									<g id="Group-3-Copy-11">
										<polygon id="Path-3" class="st11" points="0,26.7 45.5,0 92.3,26.6 45.5,53.5 										"/>
										<polygon id="Path-3-Copy" class="st11" points="45.4,53.5 92.3,26.6 92.3,79.3 45.4,105.9 										"/>
										<polygon id="Path-3-Copy-2" class="st11" points="45.5,53.5 0,26.6 0,79.3 45.5,105.9 										"/>
									</g>
									<ellipse id="Oval_2_" class="st9" cx="63.8" cy="60.1" rx="1.1" ry="2.5"/>
									<ellipse id="Oval-Copy" class="st9" cx="79" cy="51.5" rx="1.1" ry="2.5"/>
									<path id="Path-5" class="st12" d="M72.1,76c0,0,3.7,1,4.8-3"/>
								</g>
							</g>
							
								<g id="Group-5-Copy-2_1_" transform="translate(22.229235, 81.767787) scale(-1, 1) rotate(22.000000) translate(-22.229235, -81.767787) translate(11.052838, 60.178347)">
								<path id="Path-4_3_" class="st10" d="M0,0c16.8,5.8,23.3,19,19.4,39.6"/>
								<ellipse id="Oval_3_" class="st9" cx="19.5" cy="40.3" rx="2.9" ry="-2.9"/>
							</g>
						</g>
						<g id="Flag" transform="translate(79.000000, 0.000000)">
							<path id="Fill-1" class="st13" d="M41,9.1v27.2c45.1,10.9,90.1-10.9,135.2,0c-5.6-5.9-11.2-11.3-16.8-16.3
								c5.6-4.1,11.2-7.8,16.8-10.9C131.1-1.7,86.1,20,41,9.1z"/>
							<path id="New-Plan" class="st14" d="M68,30.3l-1.7,0l-8.7-11.2l0.2,11.3l-1.6,0L56,16.4l1.7,0l8.7,11.2l-0.2-11.3l1.6,0
								L68,30.3z M76.1,20.3c3.4-0.1,5.2,2.3,5.1,5.9l-8.7,0.2c0.3,2.1,1.9,3.4,3.9,3.3c1.3,0,2.5-0.5,3.3-1.4l0.9,0.9
								c-1,1.1-2.5,1.8-4.2,1.8c-3.1,0.1-5.3-2.1-5.4-5.3C70.9,22.5,73,20.3,76.1,20.3z M72.5,25l7.3-0.1c-0.1-2-1.5-3.3-3.6-3.3
								C74.1,21.6,72.7,23,72.5,25z M95.6,31.3l-1.6,0l-3.3-8.6l-3,8.7l-1.6,0l-4.2-10.5l1.7,0l3.3,8.9l2.9-9l1.7,0l3.3,8.9l3-9
								l1.6,0L95.6,31.3z M106.9,15.5l5.3-0.1c3.5-0.1,5.5,1.6,5.6,4.6c0.1,3.1-1.9,5-5.4,5l-3.7,0.1l0.1,4.5l-1.6,0L106.9,15.5z
								 M108.5,17.1l0.1,6.5l3.6-0.1c2.5,0,4-1.2,4-3.4c0-2.1-1.5-3.2-4.1-3.2L108.5,17.1z M122.1,29.4l-1.6,0l-0.3-14.9l1.6,0
								L122.1,29.4z M132.6,28.5l0-1.6c-0.8,1.2-2.2,1.8-3.9,1.8c-2.2,0-3.6-1.3-3.7-3.2c0-1.9,1.4-3,3.9-3.1l3.5-0.1l0-0.6
								c0-1.6-1-2.5-2.9-2.4c-1.2,0-2.3,0.5-3.4,1.3l-0.7-1.1c1.4-0.9,2.5-1.5,4.3-1.5c2.6,0,4.1,1.3,4.2,3.6l0.1,7L132.6,28.5z
								 M129,27.3c1.8,0,3.2-1,3.5-2.4l0-1.3l-3.3,0.1c-1.8,0-2.7,0.6-2.7,1.8C126.6,26.5,127.5,27.3,129,27.3z M143.2,16.2
								c2.5,0,4.1,1.5,4.1,4.1l0.1,6.5l-1.6,0l-0.1-6.1c0-1.9-1.2-3-3.1-2.9c-2.1,0.1-3.4,1.4-3.5,3.5l0.1,5.7l-1.6,0l-0.2-10.6
								l1.6,0l0,2.3C139.8,17,141.3,16.2,143.2,16.2z"/>
							<polygon id="Path" class="st15" points="42.4,3.2 34.5,3.2 36.9,101.8 39.8,101.9 							"/>
						</g>
						
							<ellipse id="Oval_4_" transform="matrix(0.9455 -0.3256 0.3256 0.9455 -20.7023 42.1627)" class="st9" cx="115.6" cy="82.9" rx="1.4" ry="3.2"/>
					</g>
					<g id="Percent" transform="translate(73.000000, 112.000000)">
						<path id="Rectangle_1_" class="st4" d="M0,0h36.6v21.6H22.6c-2.5,3.3-3.8,5-3.8,5s-1.4-1.7-4.2-5H0V0z"/>
						<text transform="matrix(1 0 0 1 4.9315 14)" class="st16 st17 st18">100 %</text>
					</g>
				</g>
			</g>
		</g>
	</g>
</g>
</svg>
