<svg id="Layer_1" data-name="Layer 1" xmlns="http://www.w3.org/2000/svg" viewBox="0 0 407.14 317.59"><defs><style>.cls-1,.cls-11,.cls-3,.cls-4{fill:none;}.cls-1,.cls-10,.cls-12,.cls-6{stroke:#28284a;}.cls-1,.cls-11,.cls-12,.cls-3,.cls-4,.cls-5{stroke-linecap:round;stroke-linejoin:round;}.cls-1{stroke-width:1.2px;}.cls-2{fill:#28284a;}.cls-11,.cls-3,.cls-4,.cls-5,.cls-8{stroke:#c9d8e0;}.cls-3{stroke-width:0.75px;}.cls-4,.cls-5{stroke-width:1.56px;}.cls-10,.cls-12,.cls-5,.cls-6,.cls-7,.cls-8{fill:#fff;}.cls-10,.cls-6,.cls-8{stroke-miterlimit:10;}.cls-6{stroke-width:0.8px;}.cls-8{stroke-width:0.73px;}.cls-9{fill:#c9d8e0;}.cls-11{stroke-width:1.13px;}</style></defs><title>500</title><line class="cls-1" x1="182.26" y1="208.97" x2="182.26" y2="241.34"/><line class="cls-1" x1="232.12" y1="208.29" x2="232.12" y2="243.35"/><path class="cls-1" d="M279,110.73s16.52,49.89-20.71,50.57"/><ellipse class="cls-2" cx="285.22" cy="110.73" rx="1.13" ry="2.49" transform="translate(-14.45 172.47) rotate(-32.86)"/><ellipse class="cls-3" cx="209.15" cy="202.23" rx="109.43" ry="42.27"/><ellipse class="cls-4" cx="209.15" cy="202.23" rx="109.43" ry="42.27"/><path class="cls-4" d="M99.73,231.36c0-23.35,49-42.27,109.43-42.27S318.58,208,318.58,231.36"/><path class="cls-5" d="M313.71,189.72s23.9,18.49,2.55,56.5l.1-.17C306.15,265.3,262,279.8,209.15,279.8c-52.72,0-96.73-14.4-107.11-33.58h0c-21.35-38,2.55-56.5,2.55-56.5h0c-3.17,4-4.87,8.16-4.87,12.51,0,23.35,49,42.27,109.43,42.27s109.43-18.93,109.43-42.27c0-4.38-1.72-8.6-4.92-12.57Z"/><path class="cls-4" d="M139.26,234.76s-6.07,12.8,0,35.29"/><path class="cls-4" d="M145.06,236.62s-6.07,12.8,0,35.29"/><path class="cls-4" d="M276.27,235.59s6.07,12.8,0,35.29"/><path class="cls-4" d="M270.47,237.45s6.07,12.8,0,35.29"/><polygon class="cls-6" points="207.19 162.63 207.19 223.57 258.26 194.09 258.26 133.14 207.19 162.63"/><polygon class="cls-6" points="158.04 134.25 207.19 162.63 207.19 223.57 158.04 195.2 158.04 134.25"/><polygon class="cls-6" points="207.19 162.63 158.04 134.25 209.12 104.77 258.26 133.14 207.19 162.63"/><path class="cls-5" d="M281.14,270a42.83,42.83,0,0,1,32.62-14.88c21.28,0,32.24,14.07,32.24,14.07"/><path class="cls-5" d="M74.11,275.55s16.37-14.88,47.11-14.88,46.57,14.07,46.57,14.07"/><path class="cls-4" d="M261.46,273.94s-16.37,14.88-47.11,14.88-46.57-14.07-46.57-14.07"/><path class="cls-7" d="M164.78,273.94l4.69,4-6.74,3.44s-13.19-.55-12.9-3.72a30.57,30.57,0,0,0,0-5.72Z"/><line class="cls-4" x1="96.9" y1="199.96" x2="2.35" y2="199.96"/><line class="cls-4" x1="406.35" y1="202.23" x2="322.63" y2="202.23"/><polygon class="cls-5" points="275.43 83.86 288.59 121.57 283.51 123.53 266.79 87.2 275.43 83.86"/><ellipse class="cls-2" cx="281.14" cy="117.24" rx="2.02" ry="4.1" transform="translate(9.52 255.11) rotate(-49.55)"/><path class="cls-5" d="M276.44,86.89A16.52,16.52,0,0,0,271.67,64c-.25-.16-.5-.31-.75-.45l0-.08.13-.19a27.56,27.56,0,0,0-36.78-39A19.28,19.28,0,0,0,229.13,21c.06-.6.09-1.21.09-1.82a18.41,18.41,0,1,0-36.31,4.25A19.87,19.87,0,0,0,180.3,59.6a14.53,14.53,0,0,0,12,18.49,14.44,14.44,0,0,0,8.69-1.52,27.55,27.55,0,0,0,29.2,7.52A16.51,16.51,0,0,0,257,96.6a12.17,12.17,0,0,0,1.58.86A12,12,0,0,0,264,98.51l.14.09A8.65,8.65,0,0,0,276.37,87Z"/><circle class="cls-5" cx="171.76" cy="14.98" r="7.93"/><path class="cls-8" d="M244.73,92.82a7.93,7.93,0,0,1-7.93-7.93"/><path class="cls-8" d="M256.71,35.51a7.93,7.93,0,0,1,7.93,7.93"/><path class="cls-8" d="M215.52,6.48a7.93,7.93,0,0,1,7.93,7.93"/><circle class="cls-5" cx="135.49" cy="14.98" r="4.53"/><path class="cls-1" d="M163,225.2s-3.65-42,20.71-50.57"/><circle class="cls-2" cx="163.02" cy="225.2" r="3.07"/><ellipse class="cls-2" cx="220.76" cy="173.37" rx="1.73" ry="2.77"/><ellipse class="cls-2" cx="247.36" cy="161.14" rx="1.73" ry="2.77"/><path class="cls-9" d="M198.19,179.75c0,2-1,3.6-2.28,3.6s-2.28-1.61-2.28-3.6,2.28-7.31,2.28-7.31S198.19,177.76,198.19,179.75Z"/><path class="cls-10" d="M228.86,195.19a4.6,4.6,0,0,1,4.6-4.6"/><path class="cls-11" d="M267.73,286.74c0,7.75-25.6,14-57.18,14s-57.18-6.28-57.18-14"/><polygon class="cls-10" points="130.19 317.09 104.62 317.09 118.34 304.69 104.62 292.3 130.19 292.3 130.19 317.09"/><polygon class="cls-12" points="124.29 309.8 130.19 317.09 130.19 309.8 124.29 309.8"/><polygon class="cls-10" points="296.38 317.09 321.95 317.09 308.23 304.69 321.95 292.3 296.38 292.3 296.38 317.09"/><polygon class="cls-12" points="302.29 309.8 296.38 317.09 296.38 309.8 302.29 309.8"/><rect class="cls-10" x="124.29" y="279.8" width="178" height="30"/><path class="cls-2" d="M156.66,290.64h7.65v1.92h-2.67v7h-2.33v-7h-2.65Z"/><path class="cls-2" d="M170.62,299.56l-1.3-2.47h-1.73v2.47h-2.33v-8.92h4a4.13,4.13,0,0,1,2.74.82,2.86,2.86,0,0,1,1,2.31,3.52,3.52,0,0,1-.41,1.74,2.81,2.81,0,0,1-1.18,1.14l1.86,2.92Zm-3-4.33h1.69a1.57,1.57,0,0,0,1.1-.36,1.33,1.33,0,0,0,.39-1,1.28,1.28,0,0,0-.39-1,1.59,1.59,0,0,0-1.1-.35h-1.69Z"/><path class="cls-2" d="M182.3,290.64l-3.22,6.07v2.85h-2.33v-2.79l-3.29-6.14h2.33l2.11,3.83,2.06-3.83Z"/><path class="cls-2" d="M192.49,299.56l-.61-1.58H188l-.62,1.58H185l3.83-8.92h2.39l3.74,8.92Zm-3.77-3.36h2.47L190,293Z"/><path class="cls-2" d="M201.44,295h2v3.55a5.92,5.92,0,0,1-1.75.85,6.58,6.58,0,0,1-2,.33,4.94,4.94,0,0,1-2.44-.61,4.46,4.46,0,0,1-1.71-1.66,4.57,4.57,0,0,1-.62-2.37,4.41,4.41,0,0,1,.64-2.35,4.51,4.51,0,0,1,1.77-1.65,5.28,5.28,0,0,1,2.51-.6,5.75,5.75,0,0,1,2,.36,5.17,5.17,0,0,1,1.68,1l-1.32,1.63a3.72,3.72,0,0,0-1.11-.73,3.16,3.16,0,0,0-1.24-.27,2.46,2.46,0,0,0-1.29.34,2.48,2.48,0,0,0-.9.94,2.72,2.72,0,0,0-.33,1.34,2.78,2.78,0,0,0,.33,1.36,2.44,2.44,0,0,0,.92.95,2.51,2.51,0,0,0,1.3.34,3.53,3.53,0,0,0,1.54-.43Z"/><path class="cls-2" d="M211.55,299.56l-.61-1.58h-3.86l-.62,1.58h-2.39l3.83-8.92h2.39l3.74,8.92Zm-3.77-3.36h2.47L209,293Z"/><path class="cls-2" d="M214.84,290.64h2.33v8.92h-2.33Z"/><path class="cls-2" d="M225,290.64h2.16v8.92h-2l-4-5.33v5.33H218.9v-8.92h2L225,296Z"/><path class="cls-2" d="M231.73,290.64h2.33v6.94h3.78v2h-6.11Z"/><path class="cls-2" d="M245.49,299.56l-.61-1.58H241l-.62,1.58H238l3.83-8.92h2.39l3.74,8.92Zm-3.77-3.36h2.47L243,293Z"/><path class="cls-2" d="M247,290.64h7.65v1.92H252v7h-2.33v-7H247Z"/><path class="cls-2" d="M255.64,290.64h7v1.86H258v1.67h4.25V296H258v1.68h4.84v1.86h-7.17Z"/><path class="cls-2" d="M269.6,299.56l-1.3-2.47h-1.73v2.47h-2.33v-8.92h4a4.13,4.13,0,0,1,2.74.82,2.86,2.86,0,0,1,1,2.31,3.52,3.52,0,0,1-.41,1.74,2.81,2.81,0,0,1-1.18,1.14l1.86,2.92Zm-3-4.33h1.69a1.57,1.57,0,0,0,1.1-.36,1.33,1.33,0,0,0,.39-1,1.28,1.28,0,0,0-.39-1,1.59,1.59,0,0,0-1.1-.35h-1.69Z"/><path class="cls-9" d="M208.69,44.19a9.74,9.74,0,0,1,4.48,2.92,8.28,8.28,0,0,1,1.91,4.7,10.3,10.3,0,0,1-1,5.77A10.09,10.09,0,0,1,210,61.72a15.75,15.75,0,0,1-6.52,1.92,20.73,20.73,0,0,1-6.45-.48,23.12,23.12,0,0,1-6.08-2.24l2.46-6.08q4.58,3,8.62,2.68a5.54,5.54,0,0,0,3.47-1.36,3.47,3.47,0,0,0,1-3,3.24,3.24,0,0,0-1.5-2.63,6.23,6.23,0,0,0-3.84-.6q-5.85.53-8.43.94l-1.59-17.59,20.71-1.88.59,6.46-13.32,1.21.43,4.71,2.77-.25A15.54,15.54,0,0,1,208.69,44.19Z"/><path class="cls-9" d="M239,41.5q2.61,3.37,2.24,9.36t-3.36,9q-3,3-8.19,2.73t-7.86-3.71q-2.61-3.39-2.24-9.38t3.36-9q3-3,8.25-2.71T239,41.5Zm-11.5,2.64q-1.12,1.73-1.37,5.81t.65,6a3.9,3.9,0,0,0,6.56.38q1.14-1.75,1.38-5.82T234,44.54a3.91,3.91,0,0,0-6.56-.4Z"/><path class="cls-9" d="M260.11,53.54q1.94,3,1.2,8t-3.49,7.34a9.8,9.8,0,0,1-13.41-2q-1.94-3-1.2-8t3.48-7.33a9.84,9.84,0,0,1,13.41,2Zm-9.85,1.37a10.64,10.64,0,0,0-1.57,4.77,10.72,10.72,0,0,0,.11,5.06,3.28,3.28,0,0,0,5.48.8,10.61,10.61,0,0,0,1.59-4.79,10.5,10.5,0,0,0-.13-5,3.29,3.29,0,0,0-5.48-.82Z"/><path class="cls-9" d="M93.35,50.17h2.46v9.44H93.35Z"/><path class="cls-9" d="M104.09,50.17h2.29v9.44h-2.15L99.95,54v5.64h-2.3V50.17h2.17l4.29,5.68Z"/><path class="cls-9" d="M107.4,50.17h8.09v2h-2.83v7.4H110.2V52.2h-2.8Z"/><path class="cls-9" d="M116.49,50.17h7.45v2h-5V53.9h4.5v2H119v1.78h5.12v2h-7.58Z"/><path class="cls-9" d="M131.25,59.61,129.87,57H128v2.61h-2.46V50.17h4.24a4.38,4.38,0,0,1,2.9.87,3,3,0,0,1,1,2.44,3.72,3.72,0,0,1-.43,1.84,3,3,0,0,1-1.25,1.2l2,3.08ZM128,55h1.79a1.66,1.66,0,0,0,1.16-.38,1.41,1.41,0,0,0,.41-1.09A1.35,1.35,0,0,0,131,52.5a1.68,1.68,0,0,0-1.16-.37H128Z"/><path class="cls-9" d="M141.77,50.17h2.29v9.44h-2.15L137.63,54v5.64h-2.3V50.17h2.17l4.29,5.68Z"/><path class="cls-9" d="M152.84,59.61l-.65-1.67h-4.08l-.66,1.67h-2.53L149,50.17h2.53l4,9.44Zm-4-3.55h2.61l-1.29-3.37Z"/><path class="cls-9" d="M156.31,50.17h2.46v7.34h4v2.1h-6.46Z"/><path class="cls-9" d="M60.51,68a4.73,4.73,0,0,0-1.43-.28,1.33,1.33,0,0,0-.72.17.55.55,0,0,0-.26.49.67.67,0,0,0,.23.52,1.74,1.74,0,0,0,.57.34q.34.13,1,.33a12.92,12.92,0,0,1,1.62.57,2.84,2.84,0,0,1,1.1.87,2.41,2.41,0,0,1,.46,1.53,2.61,2.61,0,0,1-.5,1.61,3,3,0,0,1-1.37,1,5.31,5.31,0,0,1-1.93.34A7,7,0,0,1,56.93,75a6.37,6.37,0,0,1-2-1.12l1-1.92a6,6,0,0,0,1.69,1,4.62,4.62,0,0,0,1.73.4,1.6,1.6,0,0,0,.87-.2.66.66,0,0,0,.32-.59.7.7,0,0,0-.24-.54,1.73,1.73,0,0,0-.59-.34q-.36-.13-1-.3A12.37,12.37,0,0,1,57,70.9,2.83,2.83,0,0,1,56,70.07a2.3,2.3,0,0,1-.45-1.49A2.6,2.6,0,0,1,56,67a3,3,0,0,1,1.32-1,5.12,5.12,0,0,1,2-.36,7.21,7.21,0,0,1,2,.29,6.64,6.64,0,0,1,1.75.77l-.93,2A8.3,8.3,0,0,0,60.51,68Z"/><path class="cls-9" d="M64.31,65.86h7.45v2h-5v1.76h4.5v2h-4.5v1.78h5.12v2H64.31Z"/><path class="cls-9" d="M79.07,75.3l-1.37-2.61H75.86V75.3H73.4V65.86h4.24a4.38,4.38,0,0,1,2.9.87,3,3,0,0,1,1,2.44A3.72,3.72,0,0,1,81.14,71a3,3,0,0,1-1.25,1.2l2,3.08Zm-3.2-4.58h1.79a1.66,1.66,0,0,0,1.16-.38,1.41,1.41,0,0,0,.41-1.09,1.35,1.35,0,0,0-.41-1.06,1.68,1.68,0,0,0-1.16-.37H75.86Z"/><path class="cls-9" d="M82.12,65.86h2.65l2.36,6.83,2.37-6.83H92L88.34,75.3H85.78Z"/><path class="cls-9" d="M92.92,65.86h7.45v2h-5v1.76h4.5v2h-4.5v1.78h5.12v2H92.92Z"/><path class="cls-9" d="M107.67,75.3l-1.37-2.61h-1.83V75.3H102V65.86h4.24a4.38,4.38,0,0,1,2.9.87,3,3,0,0,1,1,2.44,3.72,3.72,0,0,1-.43,1.84,3,3,0,0,1-1.25,1.2l2,3.08Zm-3.2-4.58h1.79a1.66,1.66,0,0,0,1.16-.38,1.41,1.41,0,0,0,.41-1.09,1.35,1.35,0,0,0-.41-1.06,1.68,1.68,0,0,0-1.16-.37h-1.79Z"/><path class="cls-9" d="M114.74,65.86h7.45v2h-5v1.76h4.5v2h-4.5v1.78h5.12v2h-7.58Z"/><path class="cls-9" d="M129.49,75.3l-1.37-2.61h-1.83V75.3h-2.46V65.86h4.24a4.38,4.38,0,0,1,2.9.87,3,3,0,0,1,1,2.44,3.72,3.72,0,0,1-.43,1.84,3,3,0,0,1-1.25,1.2l2,3.08Zm-3.2-4.58h1.79a1.66,1.66,0,0,0,1.16-.38,1.41,1.41,0,0,0,.41-1.09,1.35,1.35,0,0,0-.41-1.06,1.68,1.68,0,0,0-1.16-.37h-1.79Z"/><path class="cls-9" d="M139.24,75.3l-1.37-2.61H136V75.3h-2.46V65.86h4.24a4.38,4.38,0,0,1,2.9.87,3,3,0,0,1,1,2.44,3.72,3.72,0,0,1-.43,1.84,3,3,0,0,1-1.25,1.2l2,3.08ZM136,70.72h1.79a1.66,1.66,0,0,0,1.16-.38,1.41,1.41,0,0,0,.41-1.09,1.35,1.35,0,0,0-.41-1.06,1.68,1.68,0,0,0-1.16-.37H136Z"/><path class="cls-9" d="M150.42,66.34a4.69,4.69,0,0,1,2.5,4.21,4.78,4.78,0,0,1-2.5,4.27,5.6,5.6,0,0,1-5.21,0,4.74,4.74,0,0,1-1.83-1.76,4.84,4.84,0,0,1-.67-2.51,4.69,4.69,0,0,1,2.5-4.21,5.68,5.68,0,0,1,5.21,0Zm-3.88,1.82a2.62,2.62,0,0,0-.95,1,3,3,0,0,0,0,2.83,2.73,2.73,0,0,0,.95,1,2.39,2.39,0,0,0,1.29.37,2.36,2.36,0,0,0,1.29-.37,2.6,2.6,0,0,0,.92-1,3.13,3.13,0,0,0,0-2.83,2.55,2.55,0,0,0-.92-1,2.39,2.39,0,0,0-1.29-.36A2.46,2.46,0,0,0,146.55,68.16Z"/><path class="cls-9" d="M159.81,75.3l-1.37-2.61h-1.83V75.3h-2.46V65.86h4.24a4.38,4.38,0,0,1,2.9.87,3,3,0,0,1,1,2.44,3.72,3.72,0,0,1-.43,1.84,3,3,0,0,1-1.25,1.2l2,3.08Zm-3.2-4.58h1.79a1.66,1.66,0,0,0,1.16-.38,1.41,1.41,0,0,0,.41-1.09,1.35,1.35,0,0,0-.41-1.06,1.68,1.68,0,0,0-1.16-.37h-1.79Z"/><line class="cls-11" x1="73.29" y1="131.78" x2="45.77" y2="131.78"/><line class="cls-11" x1="36.42" y1="131.78" x2="24.17" y2="131.78"/><line class="cls-11" x1="336.35" y1="93.78" x2="329.78" y2="93.78"/><path class="cls-4" d="M364.14,73.67s0-.06,0-.09a11.12,11.12,0,0,0-21-5,8.13,8.13,0,1,0-1.21,16.16h19.64a5.82,5.82,0,0,0,2.61-11Z"/><path class="cls-4" d="M45.35,107.78s0-.09,0-.13a16.33,16.33,0,0,0-30.88-7.4A11.93,11.93,0,1,0,12.71,124H41.53a8.55,8.55,0,0,0,3.82-16.19Z"/><path class="cls-7" d="M301.14,205.23a18.12,18.12,0,1,0-18.19,18.13A18.12,18.12,0,0,0,301.14,205.23Z"/><path class="cls-9" d="M301.14,205.23a18.12,18.12,0,1,1-18.24-18.11A18.13,18.13,0,0,1,301.14,205.23Zm-34.74,4.14c.35,1,.63,1.85,1,2.7A16.11,16.11,0,0,0,270.7,217a.69.69,0,0,0,.42.22,28.5,28.5,0,0,0,6.78-.62,22.45,22.45,0,0,0,5.63-2,18.74,18.74,0,0,0,6-4.86c.17-.21.25-.36,0-.59a12.54,12.54,0,0,0-3.35-2.56c-.79-.4-1.62-.72-2.44-1.05-.17-.07-.37-.16-.56.1a10.14,10.14,0,0,1-2.39,2.43,12.36,12.36,0,0,1-6.7,2.23,26.83,26.83,0,0,1-3.11-.09,21.56,21.56,0,0,1-4.14-.76A3.84,3.84,0,0,0,266.39,209.37Zm21.19-20.53a2,2,0,0,0-.37-.15,32.11,32.11,0,0,0-3.54-.48,27.1,27.1,0,0,0-3.67.23,1.6,1.6,0,0,0-1.15.45,15.18,15.18,0,0,0-4.14,10.71,25.76,25.76,0,0,0,.32,3.46c.13.85.43,1.67.65,2.51a14.34,14.34,0,0,0,1.16,2.94.35.35,0,0,0,.29.15,9.61,9.61,0,0,0,3.25-1.65,15.71,15.71,0,0,0,1.5-1.43,1.55,1.55,0,0,0,.44-1.49,16,16,0,0,1,.39-8.68,13.18,13.18,0,0,1,3.77-5.67C286.83,189.45,287.18,189.17,287.58,188.84Zm7,28.91c.21-.19.4-.34.57-.51a17.53,17.53,0,0,0,3.72-5.67,1.4,1.4,0,0,0,.16-1.09c-.41-1-.81-2.09-1.22-3.13a13.1,13.1,0,0,0-2-3.24,15.71,15.71,0,0,0-6.66-4.89,17.54,17.54,0,0,0-5.28-1.24c-.66,0-.68-.06-.76.58a15.44,15.44,0,0,0,.3,5.58.48.48,0,0,0,.27.27c.82.3,1.67.54,2.46.89a13.26,13.26,0,0,1,4.06,3,14.48,14.48,0,0,1,3.17,5.07c.35.94.58,1.93.86,2.91C294.35,216.75,294.44,217.21,294.57,217.75Zm5.07-8.87c0-.13.06-.18.08-.23a16.36,16.36,0,0,0,.37-3.25,5.83,5.83,0,0,0,0-1.14c-.19-1.22-.37-2.45-.65-3.65a8.1,8.1,0,0,0-1.13-2.73,12,12,0,0,0-4.27-3.68,29.79,29.79,0,0,0-6.88-2.69c-.75-.2-.76-.21-1.26.39a12,12,0,0,0-2.39,4.62c-.07.28,0,.35.25.38.88.11,1.78.19,2.65.38a19.14,19.14,0,0,1,3.59,1.14,16.7,16.7,0,0,1,7.24,5.79,14.25,14.25,0,0,1,1.74,3.06C299.14,207.79,299.38,208.29,299.64,208.88Zm-9.17,1.37c-.12.14-.18.22-.25.29-.8.82-1.56,1.69-2.42,2.44a20.62,20.62,0,0,1-6.57,3.78,24.09,24.09,0,0,1-5.11,1.26c-1.21.16-2.45.19-3.67.29l-.23,0,0,.1c.58.41,1.15.83,1.74,1.21a16.26,16.26,0,0,0,4.82,2.09,7.8,7.8,0,0,0,2,.31,11.31,11.31,0,0,0,3.89-.87,18.15,18.15,0,0,0,5.28-3.1c1-.83,1.89-1.76,2.83-2.66a.49.49,0,0,0,.14-.4,16.76,16.76,0,0,0-1.74-3.86C290.92,210.88,290.7,210.59,290.46,210.25Zm-13.33-21-.2.05-.22.07a17.22,17.22,0,0,0-7,5.2,1.61,1.61,0,0,0-.35.63c-.2,1-.38,1.95-.53,2.93a27.51,27.51,0,0,0-.31,5.51c0,.8.12,1.6.23,2.39s.31,1.68.46,2.52c.06.32.26.4.54.43.65.07,1.31.17,2,.23a16.4,16.4,0,0,0,3.64-.12,3.79,3.79,0,0,0,.47-.12c-.32-.81-.64-1.56-.92-2.33a20.69,20.69,0,0,1-1.18-5.37,17.51,17.51,0,0,1,.53-6.21,16.17,16.17,0,0,1,2.66-5.43C277,189.52,277,189.41,277.14,189.24ZM268,208.63l.1-.08a29.69,29.69,0,0,1-.37-10.78,16.88,16.88,0,0,0-.86,2,17.06,17.06,0,0,0-.86,4.31,16.56,16.56,0,0,0,.19,3.87c0,.07.06.17.11.19ZM285.55,222l0,.09a3,3,0,0,0,.48,0c.64-.15,1.28-.3,1.91-.48a16.19,16.19,0,0,0,5.43-2.8.41.41,0,0,0,.16-.3c-.08-.61-.19-1.22-.28-1.83l-.1-.05A23.15,23.15,0,0,1,285.55,222Zm10-28.09.06-.06a2.48,2.48,0,0,0-.21-.24c-.69-.63-1.36-1.29-2.08-1.88a15.87,15.87,0,0,0-4.07-2.33c-.18-.07-.36-.17-.56,0-.39.3-.79.58-1.18.88-.06,0-.12.12-.11.18s.1.1.17.12l1.38.4a27.21,27.21,0,0,1,4.85,2C294.43,193.2,295,193.55,295.6,193.88Z"/><path class="cls-7" d="M266.39,209.37a3.84,3.84,0,0,1,.45.05,21.56,21.56,0,0,0,4.14.76,26.83,26.83,0,0,0,3.11.09,12.36,12.36,0,0,0,6.7-2.23,10.14,10.14,0,0,0,2.39-2.43c.18-.26.39-.16.56-.1.82.33,1.65.65,2.44,1.05a12.54,12.54,0,0,1,3.35,2.56c.23.24.15.39,0,.59a18.74,18.74,0,0,1-6,4.86,22.45,22.45,0,0,1-5.63,2,28.5,28.5,0,0,1-6.78.62.69.69,0,0,1-.42-.22,16.11,16.11,0,0,1-3.31-4.95C267,211.21,266.74,210.32,266.39,209.37Z"/><path class="cls-7" d="M287.58,188.84c-.4.33-.76.61-1.1.91a13.18,13.18,0,0,0-3.77,5.67,16,16,0,0,0-.39,8.68,1.55,1.55,0,0,1-.44,1.49,15.71,15.71,0,0,1-1.5,1.43,9.61,9.61,0,0,1-3.25,1.65.35.35,0,0,1-.29-.15,14.34,14.34,0,0,1-1.16-2.94c-.22-.84-.52-1.66-.65-2.51a25.76,25.76,0,0,1-.32-3.46,15.18,15.18,0,0,1,4.14-10.71,1.6,1.6,0,0,1,1.15-.45,27.1,27.1,0,0,1,3.67-.23,32.11,32.11,0,0,1,3.54.48A2,2,0,0,1,287.58,188.84Z"/><path class="cls-7" d="M294.57,217.75c-.12-.53-.21-1-.34-1.46-.27-1-.5-2-.86-2.91a14.48,14.48,0,0,0-3.17-5.07,13.26,13.26,0,0,0-4.06-3c-.8-.35-1.64-.59-2.46-.89a.48.48,0,0,1-.27-.27,15.44,15.44,0,0,1-.3-5.58c.08-.64.1-.62.76-.58a17.54,17.54,0,0,1,5.28,1.24,15.71,15.71,0,0,1,6.66,4.89,13.1,13.1,0,0,1,2,3.24c.41,1,.81,2.09,1.22,3.13a1.4,1.4,0,0,1-.16,1.09,17.53,17.53,0,0,1-3.72,5.67C295,217.41,294.78,217.56,294.57,217.75Z"/><path class="cls-7" d="M299.64,208.88c-.26-.59-.5-1.09-.7-1.6a14.25,14.25,0,0,0-1.74-3.06,16.7,16.7,0,0,0-7.24-5.79,19.14,19.14,0,0,0-3.59-1.14c-.87-.18-1.76-.27-2.65-.38-.27,0-.32-.11-.25-.38a12,12,0,0,1,2.39-4.62c.5-.6.51-.59,1.26-.39a29.79,29.79,0,0,1,6.88,2.69,12,12,0,0,1,4.27,3.68,8.1,8.1,0,0,1,1.13,2.73c.28,1.2.46,2.43.65,3.65a5.83,5.83,0,0,1,0,1.14,16.36,16.36,0,0,1-.37,3.25C299.7,208.7,299.68,208.75,299.64,208.88Z"/><path class="cls-7" d="M290.46,210.25c.24.35.45.64.65.94a16.76,16.76,0,0,1,1.74,3.86.49.49,0,0,1-.14.4c-.93.9-1.84,1.83-2.83,2.66a18.15,18.15,0,0,1-5.28,3.1,11.31,11.31,0,0,1-3.89.87,7.8,7.8,0,0,1-2-.31,16.26,16.26,0,0,1-4.82-2.09c-.59-.39-1.16-.81-1.74-1.21l0-.1.23,0c1.22-.09,2.46-.13,3.67-.29a24.09,24.09,0,0,0,5.11-1.26,20.62,20.62,0,0,0,6.57-3.78c.86-.75,1.62-1.62,2.42-2.44C290.28,210.47,290.34,210.39,290.46,210.25Z"/><path class="cls-7" d="M277.14,189.24c-.1.17-.16.28-.24.38a16.17,16.17,0,0,0-2.66,5.43,17.51,17.51,0,0,0-.53,6.21,20.69,20.69,0,0,0,1.18,5.37c.28.77.6,1.52.92,2.33a3.79,3.79,0,0,1-.47.12,16.4,16.4,0,0,1-3.64.12c-.66-.06-1.31-.15-2-.23-.28,0-.49-.11-.54-.43-.15-.84-.33-1.67-.46-2.52s-.19-1.59-.23-2.39a27.51,27.51,0,0,1,.31-5.51c.15-1,.33-2,.53-2.93a1.61,1.61,0,0,1,.35-.63,17.22,17.22,0,0,1,7-5.2l.22-.07Z"/><path class="cls-7" d="M268,208.63l-1.69-.48c-.05,0-.1-.12-.11-.19a16.56,16.56,0,0,1-.19-3.87,17.06,17.06,0,0,1,.86-4.31,16.88,16.88,0,0,1,.86-2,29.69,29.69,0,0,0,.37,10.78Z"/><path class="cls-7" d="M285.55,222a23.15,23.15,0,0,0,7.62-5.4l.1.05c.1.61.2,1.22.28,1.83a.41.41,0,0,1-.16.3,16.19,16.19,0,0,1-5.43,2.8c-.63.18-1.27.33-1.91.48a3,3,0,0,1-.48,0Z"/><path class="cls-7" d="M295.6,193.88c-.59-.33-1.17-.68-1.76-1a27.21,27.21,0,0,0-4.85-2l-1.38-.4c-.07,0-.16-.07-.17-.12s.06-.14.11-.18c.39-.3.79-.58,1.18-.88.2-.16.39-.06.56,0a15.87,15.87,0,0,1,4.07,2.33c.73.59,1.39,1.25,2.08,1.88a2.48,2.48,0,0,1,.21.24Z"/></svg>