<?xml version="1.0" encoding="UTF-8"?>
<svg width="25px" height="25px" viewBox="0 0 25 25" version="1.1" xmlns="http://www.w3.org/2000/svg" xmlns:xlink="http://www.w3.org/1999/xlink">
    <!-- Generator: Sketch 42 (36781) - http://www.bohemiancoding.com/sketch -->
    <title>Group</title>
    <desc>Created with Sketch.</desc>
    <defs></defs>
    <g id="Page-1" stroke="none" stroke-width="1" fill="none" fill-rule="evenodd">
        <g id="07-factoid-block" transform="translate(-199.000000, -24.000000)" fill-rule="nonzero" fill="#B5B5C0">
            <g id="Group" transform="translate(199.000000, 24.000000)">
                <path d="M10,20 C4.4771525,20 0,15.5228475 0,10 C0,4.4771525 4.4771525,0 10,0 C15.5228475,0 20,4.4771525 20,10 C20,15.5228475 15.5228475,20 10,20 Z M10,18 C14.418278,18 18,14.418278 18,10 C18,5.581722 14.418278,2 10,2 C5.581722,2 2,5.581722 2,10 C2,14.418278 5.581722,18 10,18 Z" id="Oval"></path>
                <polygon id="Line" points="15.9230915 17.3373051 23.2267436 24.6409571 24.6409571 23.2267436 17.3373051 15.9230915"></polygon>
            </g>
        </g>
    </g>
</svg>