<svg xmlns="http://www.w3.org/2000/svg" viewBox="0 0 183.75 45.35"><defs><style>.cls-1{fill:#fff;}</style></defs><title>24_factom_horizontal_white</title><g id="Layer_2" data-name="Layer 2"><g id="Capa_1" data-name="Capa 1"><g id="Group"><path id="Shape" class="cls-1" d="M18,39.69a14.39,14.39,0,0,0-1.19,1.89A14.39,14.39,0,0,1,18,39.69"/><path id="Shape-2" data-name="Shape" class="cls-1" d="M21,.1c.6,0,1.29-.1,1.89-.1,2,0,3,.79,2.59,2.28C25,4.17,22.38,6.65,19,8.93c-.7.3-1.29-.6-1.19-.89a.1.1,0,0,1,.1-.1c3-2,5.27-4.17,5.67-5.85C24,.6,22.68-.1,20.49.1H21"/><path id="Shape-3" data-name="Shape" class="cls-1" d="M32.62,2.28c1.19.5,1.59,1.49,1.29,3C32.72,9.53,24.37,16.17,15,20.14c-1.79.69-3.38,1.29-5,1.79-.8.1-1-1.09-.6-1.59.1-.2.2-.2.3-.3a46,46,0,0,0,4.67-1.69c8.75-3.67,16.71-9.92,17.8-14a2.16,2.16,0,0,0-1.49-2.88,10.79,10.79,0,0,0,1.89.79"/><path id="Shape-4" data-name="Shape" class="cls-1" d="M42.67,11.91l.3.5a2.08,2.08,0,0,1,.3,1.19v.1a3.06,3.06,0,0,1-.9-1.79,2.27,2.27,0,0,0-.4-1.39l.7,1.39"/><path id="Shape-5" data-name="Shape" class="cls-1" d="M44.66,17a3.74,3.74,0,0,1-.1,1.79c-1.09,4.27-8.35,10.42-17.11,15-1,.4-1.59-.3-1.29-1,.1-.3.3-.4.5-.6,8.85-4.66,16.21-10.91,17.41-15.28a3.33,3.33,0,0,0,0-2c.2.69.5,1.49.6,2.08"/><path id="Shape-6" data-name="Shape" class="cls-1" d="M45.35,21v.69a4.44,4.44,0,0,1-.1,1.09c-.7,2.58-3.78,6-8.26,9.23-.7.4-1-.2-.9-.69a1,1,0,0,1,.5-.69c4.58-3.37,7.76-6.85,8.45-9.53a3.4,3.4,0,0,0,.1-1.39l.2,1.29"/><path id="Shape-7" data-name="Shape" class="cls-1" d="M13.33,38.3A1.63,1.63,0,0,0,12,37.51c-3.68.6-6.27.2-7.36-1.09l-.1-.1h0a5,5,0,0,0,.7.79,5.68,5.68,0,0,0,.7.79c1.09,1.19,3.68,1.49,7.16,1C13.63,38.89,13.43,38.5,13.33,38.3Z"/><path id="Shape-8" data-name="Shape" class="cls-1" d="M24,38.7c.1.1.1.5-.5.79-6.66,2.58-11.84,3.18-13.92,1.69-.5-.4-1.19-.89-1.59-1.29,2,1.69,7.56,1.19,14.62-1.59a1.15,1.15,0,0,1,1.39.4"/><path id="Shape-9" data-name="Shape" class="cls-1" d="M45.35,24.81c-.1.5-.1,1.29-.2,1.79a.36.36,0,0,1-.1.3C44,31.06,35.81,37.51,26.76,41.28c-5.87,2.48-10.54,3.18-12.83,2.28-.6-.3-1.29-.6-1.89-.89,7.86,3.27,32.23-10,33.32-18.16v.3"/><path id="Shape-10" data-name="Shape" class="cls-1" d="M43.66,31.35C40.28,38.3,24.77,45.94,18.6,44.95a15.93,15.93,0,0,1-2.09-.5c2.19.6,6.37-.1,11.34-2.18,8.06-3.47,15.42-9.23,16.61-13-.3.6-.5,1.49-.8,2.08"/><path id="Shape-11" data-name="Shape" class="cls-1" d="M38.69,38.3a1.17,1.17,0,0,1-.5.6,38.34,38.34,0,0,1-8,4.76,19,19,0,0,1-6.37,1.69H21.48a18.76,18.76,0,0,0,8.06-2A36.33,36.33,0,0,0,38.59,38c.1,0,.1-.1.2-.1V38a.36.36,0,0,1-.1.3"/><path id="Shape-12" data-name="Shape" class="cls-1" d="M1.69,20.54a1.84,1.84,0,0,1-.8-.69,2.39,2.39,0,0,1-.4-1.49c0-.2.1-.4.1-.6V18l-.2.79L.2,19.94v.79c0,.2.1.3.1.5v.1a.1.1,0,0,0,.1.1c0,.1.1.1.1.2h0a2.35,2.35,0,0,0,.9.79c.2,0,.3-.3.4-.6C1.79,21.73,1.89,20.74,1.69,20.54Z"/><path id="Shape-13" data-name="Shape" class="cls-1" d="M36.7,4.86l-.9-.69-.8-.5A2.32,2.32,0,0,1,36.1,5.85C35.71,13.3,6.86,31.06.4,24.11A2.1,2.1,0,0,1,0,22.72c0,.6.1,1.29.1,1.89h0v.1h0v.1h0v.1a.6.6,0,0,0,.1.4v.2h0c0,.1.1.1.1.2,0-.1-.1-.1-.1-.2.1.2.1.3.2.4h0c1.69,2.28,7.86,1.79,16-1.69C26.66,19.84,36.1,12.5,37.3,7.74A2.32,2.32,0,0,0,36.7,4.86Z"/><path id="Shape-14" data-name="Shape" class="cls-1" d="M40.18,8.24c-.4-.5-1-1.09-1.39-1.59a2.69,2.69,0,0,1,.6,2.78c-1.29,5-11,12.6-21.78,17.17C9.25,30.16,2.78,30.66,1,28.38H1a3.52,3.52,0,0,1-.4-.89c.1.6.4,1.39.5,2a1.61,1.61,0,0,0,.3.6h0c1.79,2.38,8.45,1.79,17-1.79,10.94-4.56,20.89-12.4,22.18-17.46A2.61,2.61,0,0,0,40.18,8.24Z"/><path id="Shape-15" data-name="Shape" class="cls-1" d="M16.81.79c-.3.1-.5.1-.8.2s-.4.1-.7.2a5.71,5.71,0,0,1-.7.4,4.86,4.86,0,0,1-.7.3,1.68,1.68,0,0,0-.6.3,3.27,3.27,0,0,0-.6.3.55.55,0,0,0-.5.2c-.2.1-.3.2-.5.3s-.3.2-.5.3-.3.2-.5.3-.3.2-.5.3-.3.2-.5.3-.3.2-.5.4-.3.2-.5.4a3.15,3.15,0,0,0-.6.5,3.15,3.15,0,0,1-.6.5L6.27,7.24c-.3.4-.5.79-.7,1.09a.6.6,0,0,0-.1.4v.2a1.07,1.07,0,0,0,.2.79c.7,1,3.38.69,6.76-.69a22.38,22.38,0,0,0,3.08-1.59.45.45,0,0,0,0-.6c-.1-.1-.4-.5-.7-.4a19.56,19.56,0,0,1-2.49,1.29C9.65,8.93,7.56,9,7,8.33a.75.75,0,0,1-.1-.79,2.49,2.49,0,0,1,.7-1.19A13.45,13.45,0,0,1,9.25,4.66a25.81,25.81,0,0,1,5.17-2.88l.9-.3c2.69-.89,4.48-.6,4.08.79a4.15,4.15,0,0,1-.9,1.49,2.38,2.38,0,0,0,1.69.2,5.09,5.09,0,0,0,1.09-1.79C21.48.5,19.69.1,16.81.79Z"/><path id="Shape-16" data-name="Shape" class="cls-1" d="M10.44,11.71c-3.28,1.09-5.67,1.09-6.37.1a1.79,1.79,0,0,1-.2-1.29,3.66,3.66,0,0,1,.5-1.09c.2-.3.3-.5.5-.79l-.3.4a2.16,2.16,0,0,0-.5.79,3.48,3.48,0,0,0-.5.79l-.4.79c-.1.2-.1.4-.2.6s-.1.2-.1.4V13h0c0,.2.1.3.2.5h0c.8.89,2.29.89,3.48.79,4.18-.5,4.18-1.19,4.28-1.69C10.84,12.5,10.94,11.61,10.44,11.71Z"/><path id="Shape-17" data-name="Shape" class="cls-1" d="M28.45.79a6.35,6.35,0,0,0-.9-.2,2.81,2.81,0,0,0-.8-.1,1.78,1.78,0,0,1,1.19,2.38c-.9,3.37-7.46,8.53-14.72,11.61C7.56,16.87,3.18,17.26,2,15.68A1.9,1.9,0,0,1,1.79,14a6.83,6.83,0,0,0,.3-.79,16.52,16.52,0,0,0-.8,2c0,.1-.1.2-.1.4s-.1.3-.1.5a1.64,1.64,0,0,0,.3,1.39c1.29,1.79,6.07,1.39,12.33-1.29,8-3.37,15.12-9,16.11-12.7A2.11,2.11,0,0,0,28.45.79Z"/><path id="Shape-18" data-name="Shape" class="cls-1" d="M3.18,34.23a3.55,3.55,0,0,1-.4-.69h0v-.1a9.21,9.21,0,0,1-.5-1c1.79,2.48,8.55,1.89,17.21-1.79a62.77,62.77,0,0,0,17-10.52.79.79,0,0,1,1.19.5,1.11,1.11,0,0,1-.2,1.19,65.32,65.32,0,0,1-17,10.52c-8.16,3.47-14.62,4.17-16.81,2.28,0,.1-.3-.2-.5-.4"/></g><g id="Group-2" data-name="Group"><path id="Shape-19" data-name="Shape" class="cls-1" d="M94,23.16a11.07,11.07,0,0,1,11.47-11.4,9.78,9.78,0,0,1,8.11,4,1,1,0,0,1-.4,1.5l-1.48.8a.94.94,0,0,1-1.19-.3,6.4,6.4,0,0,0-5-2.5c-4.35,0-7.52,3.4-7.52,8s3.26,8,7.52,8a6.25,6.25,0,0,0,5-2.5.94.94,0,0,1,1.19-.3l1.48.8a1,1,0,0,1,.3,1.5,9.78,9.78,0,0,1-8.11,4A11.16,11.16,0,0,1,94,23.16Z"/><path id="Shape-20" data-name="Shape" class="cls-1" d="M134.91,23.16c0-5.3,3-9.5,7.52-10.9a6.25,6.25,0,0,1,.69-.2,15.11,15.11,0,0,1,3-.4c6.53,0,11.17,4.8,11.17,11.4s-4.65,11.4-11.17,11.4C139.56,34.66,134.91,29.86,134.91,23.16Zm18.49,0c0-4.6-2.87-8-7.22-8s-7.22,3.4-7.22,8,2.87,8,7.22,8S153.4,27.76,153.4,23.16Z"/><path id="Shape-21" data-name="Shape" class="cls-1" d="M67.73,21.26H60.52v-5.7H70.7a1,1,0,0,0,.89-.6l.59-1.4a1,1,0,0,0-.89-1.4H57.65a.94.94,0,0,0-1,1v20.1a.94.94,0,0,0,1,1h1.88a.94.94,0,0,0,1-1v-8.6h6.72a1,1,0,0,0,.89-.6l.59-1.4A1.08,1.08,0,0,0,67.73,21.26Z"/><path class="cls-1" d="M133.63,12.16H116.75a1,1,0,0,0-.79,1.6l.89,1.4a.9.9,0,0,0,.79.4h5.62v17.7a.94.94,0,0,0,1,1h1.88a.94.94,0,0,0,1-1V15.56h5.62a.9.9,0,0,0,.79-.4l.89-1.4A1,1,0,0,0,133.63,12.16Z"/></g><path class="cls-1" d="M42.37,3.39a1.7,1.7,0,1,1,1.7-1.69A1.7,1.7,0,0,1,42.37,3.39Zm0-3.13A1.44,1.44,0,1,0,43.81,1.7,1.43,1.43,0,0,0,42.37.26Zm.46,2.41-.5-.77H42v.77h-.27V.73h.79a.6.6,0,0,1,.63.59.57.57,0,0,1-.5.58l.52.78ZM42.51,1H42v.69h.52a.35.35,0,0,0,.35-.34A.35.35,0,0,0,42.51,1Z"/><g id="Shape-22" data-name="Shape"><path class="cls-1" d="M178,12.76l-3.93,9.65a1.11,1.11,0,0,0,0,.8l1.32,3.35c.2.4.79.4.89,0l3.61-8.7v15.4a.94.94,0,0,0,1,1h1.88a.94.94,0,0,0,1-1V13.16a.94.94,0,0,0-1-1H179A1.16,1.16,0,0,0,178,12.76Z"/><path class="cls-1" d="M172.87,31.66a1,1,0,0,0,.89-1.4l-7.12-17.4a1,1,0,0,0-.89-.6H162a.94.94,0,0,0-1,1v20.1a.94.94,0,0,0,1,1h1.88a.94.94,0,0,0,1-1V17.86L170.26,31a1,1,0,0,0,.89.6Z"/></g><path id="Shape-23" data-name="Shape" class="cls-1" d="M83.41,12.16H80a1,1,0,0,0-.89.6l-7.91,20.1a1,1,0,0,0,.89,1.4h2.27a1,1,0,0,0,.89-.6l6.33-17.5,4,10.5h-4a1.19,1.19,0,0,0-1,.7l-.69,2.1a.53.53,0,0,0,.49.7h6.33l1.38,3.6a.87.87,0,0,0,.89.6h2.27a1,1,0,0,0,.89-1.4L84.3,12.86A.92.92,0,0,0,83.41,12.16Z"/></g></g></svg>