<?xml version="1.0" encoding="UTF-8"?>
<svg width="139px" height="35px" viewBox="0 0 139 35" version="1.1" xmlns="http://www.w3.org/2000/svg" xmlns:xlink="http://www.w3.org/1999/xlink">
    <!-- Generator: Sketch 42 (36781) - http://www.bohemiancoding.com/sketch -->
    <title>factom-logo-color</title>
    <desc>Created with Sketch.</desc>
    <defs></defs>
    <g id="Page-1" stroke="none" stroke-width="1" fill="none" fill-rule="evenodd">
        <g id="01-block-lists" transform="translate(-33.000000, -18.000000)">
            <g id="factom-logo-white" transform="translate(33.000000, 18.000000)">
                <g id="Page-1">
                    <path d="M76.5984092,17.9404167 C76.5984092,12.9820833 80.2166862,9.59583333 84.8749682,9.59583333 C87.6713631,9.59583333 89.5239836,10.8952083 90.7350656,12.5176042 C91.0030862,12.8763542 90.8776297,13.3984375 90.4841528,13.6033333 L89.4035169,14.1669792 C89.0984297,14.3266667 88.7299015,14.2384375 88.5189067,13.9613542 C87.6984503,12.8821875 86.3583477,12.1114583 84.8749682,12.1114583 C81.7535272,12.1114583 79.4361477,14.5541667 79.4361477,17.9404167 C79.4361477,21.3273958 81.7535272,23.7701042 84.8749682,23.7701042 C86.3590605,23.7701042 87.6998759,23.0161458 88.5203323,21.9253125 C88.7306144,21.6460417 89.1005682,21.555625 89.407081,21.7160417 L90.4798759,22.2753125 C90.8740656,22.4809375 90.9980964,23.0052083 90.7279374,23.3639583 C89.5054503,24.9863542 87.6706503,26.285 84.8749682,26.285 C80.2166862,26.285 76.5984092,22.8994792 76.5984092,17.9404167" id="Fill-1" fill="#FFFFFF"></path>
                    <path d="M117.734853,17.9404167 C117.734853,14.6022917 115.677653,12.1114583 112.509166,12.1114583 C109.317156,12.1114583 107.283479,14.6022917 107.283479,17.9404167 C107.283479,21.2544792 109.317156,23.7701042 112.509166,23.7701042 C115.677653,23.7701042 117.734853,21.2544792 117.734853,17.9404167 M104.445741,17.9404167 C104.445741,14.07875 106.592043,11.0417708 109.882423,9.9925 C110.035679,9.94364583 110.190361,9.89916667 110.347894,9.8590625 C111.027212,9.68625 111.750012,9.59583333 112.509166,9.59583333 C117.23873,9.59583333 120.572592,13.1264583 120.572592,17.9404167 C120.572592,22.754375 117.23873,26.285 112.509166,26.285 C107.780315,26.285 104.445741,22.754375 104.445741,17.9404167" id="Fill-3" fill="#FFFFFF"></path>
                    <path d="M70.6007374,9.86190625 L68.1201221,9.86190625 C67.8271528,9.86190625 67.5641221,10.0456563 67.457199,10.3241979 L61.82164,24.9994063 C61.6377323,25.4777396 61.9827374,25.9954479 62.4852759,25.9954479 L64.0941118,25.9954479 C64.3892195,25.9954479 64.6536759,25.8087813 64.7591733,25.5273229 L65.7428656,22.8994063 L66.5226913,20.4078438 L67.3395836,18.1940938 L69.3611426,12.7158646 L72.1981682,20.4078438 L69.3518759,20.4078438 C69.041799,20.4078438 68.7673631,20.6127396 68.6725579,20.9146146 L68.2006708,22.4232604 C68.1272503,22.6587813 68.2983272,22.8994063 68.5399733,22.8994063 L72.9787067,22.8994063 L73.9616862,25.5265938 C74.0671836,25.8087813 74.3323528,25.9954479 74.6274605,25.9954479 L76.2362964,25.9954479 C76.7388349,25.9954479 77.0831272,25.4777396 76.8999323,24.9994063 L71.2643733,10.3241979 C71.1567374,10.0456563 70.8937067,9.86190625 70.6007374,9.86190625" id="Fill-5" fill="#FFFFFF"></path>
                    <path d="M61.7174256,16.5376458 L56.5067077,16.5376458 L56.5067077,12.3529583 L63.8844,12.3529583 C64.1773692,12.3529583 64.4404,12.1692083 64.5480359,11.8899375 L64.9450769,10.8581667 C65.1289846,10.3798333 64.7839795,9.862125 64.281441,9.862125 L54.4530718,9.862125 C54.0595949,9.862125 53.7402513,10.1880625 53.7402513,10.5912917 L53.7402513,25.2665 C53.7402513,25.669 54.0595949,25.9956667 54.4530718,25.9956667 L55.7938872,25.9956667 C56.1873641,25.9956667 56.5067077,25.669 56.5067077,25.2665 L56.5067077,19.0292083 L61.3203846,19.0292083 C61.6140667,19.0292083 61.8770974,18.8454583 61.9840205,18.5669167 L62.3810615,17.5336875 C62.5642564,17.0553542 62.2199641,16.5376458 61.7174256,16.5376458" id="Fill-7" fill="#FFFFFF"></path>
                    <path d="M92.3889518,9.86190625 C91.7887569,9.86190625 91.4530185,10.5743021 91.8372287,11.0468021 L92.5030031,12.0370104 C92.6363005,12.2346146 92.8558492,12.3527396 93.0903672,12.3527396 L97.0572133,12.3527396 L97.0572133,25.9954479 L99.8236697,25.9954479 L99.8236697,12.3527396 L103.793367,12.3527396 C104.030736,12.3527396 104.246721,12.2273229 104.380018,12.0268021 C104.600993,11.6943021 104.841926,11.3763854 105.102106,11.0745104 C105.509126,10.6012813 105.191921,9.86190625 104.575331,9.86190625 L92.3889518,9.86190625 Z" id="Fill-9" fill="#FFFFFF"></path>
                    <path d="M134.807118,10.2717708 L131.611544,18.1555208 C131.538836,18.3341667 131.538836,18.5346875 131.610831,18.7133333 L132.578129,21.1130208 C132.699308,21.4134375 133.115595,21.4134375 133.236775,21.1130208 L136.124411,13.9817708 L136.124411,25.22625 C136.124411,25.62875 136.443042,25.9554167 136.837231,25.9554167 L138.177334,25.9554167 C138.571524,25.9554167 138.890154,25.62875 138.890154,25.22625 L138.890154,10.5510417 C138.890154,10.1485417 138.571524,9.821875 138.177334,9.821875 L135.465765,9.821875 C135.177072,9.821875 134.917606,9.9990625 134.807118,10.2717708" id="Fill-11" fill="#FFFFFF"></path>
                    <path d="M131.06253,24.0143021 C131.570058,24.0143021 131.915063,23.4871146 131.721176,23.0065938 L130.685448,20.4399271 L130.685448,20.4406563 L126.587443,10.2731563 C126.477668,9.99971875 126.217489,9.82180208 125.928796,9.82180208 L123.216514,9.82180208 C122.823037,9.82180208 122.503694,10.1484688 122.503694,10.5509688 L122.503694,25.2261771 C122.503694,25.6286771 122.823037,25.9553438 123.216514,25.9553438 L124.55733,25.9553438 C124.951519,25.9553438 125.27015,25.6286771 125.27015,25.2261771 L125.27015,13.9816979 L129.130786,23.5629479 C129.240561,23.8363854 129.50074,24.0143021 129.789432,24.0143021 L131.06253,24.0143021 Z" id="Fill-13" fill="#FFFFFF"></path>
                    <path d="M13.358399,30.1422917 C12.9670605,30.6454167 12.6655374,31.1288542 12.4716503,31.5794792 C12.6655374,31.1288542 12.9670605,30.6454167 13.358399,30.1422917" id="Fill-15" fill="#E8B420"></path>
                    <path d="M15.5760549,0.0455 C15.9930549,0.0265416667 16.5490549,0.00175 16.9667677,0.000291666667 C18.4401677,0.006125 19.2100138,0.596020833 18.9084908,1.75247917 C18.5385369,3.17289583 16.6431472,5.10008333 14.0983779,6.82675 C13.6172241,7.06008333 13.1218138,6.39435417 13.2237472,6.11435417 C13.2380036,6.0764375 13.2772087,6.034875 13.3064344,6.00716667 C15.5290087,4.49997917 17.1834651,2.8170625 17.5063728,1.57747917 C17.8093215,0.416645833 16.8762395,-0.0908541667 15.1961215,0.0783125 L15.5760549,0.0455" id="Fill-17" fill="#D27C40"></path>
                    <path d="M24.1577723,1.7180625 C25.0124441,2.12420833 25.3674287,2.87452083 25.0837262,3.9624375 C24.2340441,7.2218125 17.9747672,12.2785833 11.1038903,15.2565 C9.79942872,15.8223333 8.56696205,16.2722292 7.43143897,16.6076458 C6.81199795,16.6987917 6.71077744,15.7822292 6.9702441,15.4030625 C7.05221846,15.2820208 7.14417231,15.2411875 7.21759282,15.2076458 C8.28682359,14.8919167 9.44729538,14.4682708 10.6747723,13.9359792 C17.1429056,11.1330625 23.03508,6.3730625 23.8355774,3.30472917 C24.1242697,2.1949375 23.7079826,1.45847917 22.7528031,1.10264583 C23.1755056,1.28420833 23.7429108,1.519 24.1577723,1.7180625" id="Fill-19" fill="#E8B420"></path>
                    <path d="M31.5980503,8.97035417 L31.8047682,9.37066667 C32.0043579,9.92920833 32.0043579,9.92920833 32.0079221,10.2668125 C32.0050708,10.2857708 31.9958041,10.3134792 31.9808349,10.3251458 C31.7933631,10.2609792 31.3392964,9.37722917 31.2965272,8.9936875 C31.2922503,8.59191667 31.1945938,8.24410417 31.0092605,7.94952083 L31.5980503,8.97035417" id="Fill-21" fill="#E8B420"></path>
                    <path d="M33.1073764,12.8604583 C33.2050328,13.2425417 33.1922021,13.6895208 33.0596174,14.1992083 C32.2220533,17.4119167 26.873761,22.1223333 20.3992123,25.5975417 C19.6764123,25.9067083 19.2337508,25.3481667 19.4062533,24.8720208 C19.4896533,24.6437917 19.6414841,24.5438958 19.7762072,24.4549375 C26.357679,20.9228542 31.794361,16.1336875 32.6461815,12.8684792 C32.8008636,12.2749375 32.795161,11.7667083 32.6454687,11.3437917 C32.7866072,11.7980625 32.9883354,12.399625 33.1073764,12.8604583" id="Fill-23" fill="#407BA4"></path>
                    <path d="M33.6052103,15.9248542 L33.6365744,16.4782917 C33.6465538,16.7335 33.6130513,17.0135 33.5332154,17.3175625 C33.0206974,19.2848542 30.6954769,21.8537083 27.4500051,24.3044375 C26.9246564,24.6332917 26.695841,24.1586042 26.7721128,23.7765208 C26.8341282,23.4673542 27.0301538,23.291625 27.1135538,23.2165208 C30.4737897,20.6790208 32.8816974,18.0182917 33.4127487,15.981 C33.5153949,15.5879792 33.5439077,15.2336042 33.5032769,14.9186042 L33.6052103,15.9248542" id="Fill-25" fill="#D27C40"></path>
                    <path d="M9.89950872,29.0734062 C9.83321641,28.9458021 9.47181641,28.4762187 8.92223179,28.5068437 C6.19925744,28.9654896 4.24755487,28.6752812 3.45846256,27.6573646 C3.44563179,27.6398646 3.42994974,27.6238229 3.41711897,27.6063229 C3.42496,27.6179896 3.43351385,27.6296562 3.44278051,27.6413229 C3.58463179,27.8294479 3.75856,28.0430937 3.93391385,28.2552812 C4.10855487,28.4711146 4.28462154,28.6862187 4.44286769,28.8641354 C5.27401641,29.7712187 7.14944718,30.0169479 9.72201641,29.5830937 C10.0556164,29.4831979 9.97649333,29.2206979 9.89950872,29.0734062" id="Fill-27" fill="#407BA4"></path>
                    <path d="M17.7545769,29.3854167 C17.798059,29.4911458 17.8529462,29.7616667 17.4159872,29.981875 C12.5053667,31.9695833 8.65542308,32.3771875 7.11074103,31.2622917 C6.75005385,30.9801042 6.26248462,30.611875 5.91462821,30.3129167 C7.41297692,31.5991667 11.4860333,31.215625 16.7231256,29.0952083 C17.4951103,28.8516667 17.7524385,29.3803125 17.7545769,29.3854167" id="Fill-29" fill="#D27C40"></path>
                    <path d="M33.5775528,18.787125 C33.5255169,19.1910833 33.4692041,19.7306667 33.402199,20.1324375 C33.3879426,20.2148333 33.3694092,20.2994167 33.346599,20.3861875 C32.5240041,23.5420208 26.4628913,28.438375 19.8101374,31.3222292 C15.4804656,33.198375 11.9669733,33.7605625 10.2676092,33.054 C9.84918359,32.8549375 9.28748103,32.5960833 8.87832205,32.3766042 C14.7177477,34.8637917 32.7364246,24.7925417 33.596799,18.5610833 L33.5775528,18.787125" id="Fill-31" fill="#407BA4"></path>
                    <path d="M32.3771631,23.762375 C29.8666092,29.012375 18.3481426,34.87925 13.763281,34.1260208 C13.2871169,34.0181042 12.6519938,33.8759167 12.1815323,33.7453958 C13.8217323,34.2237292 16.8811579,33.6746667 20.6006554,32.0624792 C26.5847836,29.4688333 32.0442759,25.0909167 32.9196195,22.2077917 C32.762799,22.6759167 32.5731887,23.3095625 32.3771631,23.762375" id="Fill-33" fill="#E8B420"></path>
                    <path d="M28.6823292,29.0297292 C28.6466882,29.09025 28.5141036,29.3031667 28.286001,29.505875 C26.6821549,30.8249375 24.5679292,32.130875 22.3517703,33.0911875 C20.4841805,33.9005625 18.8511087,34.3322292 17.6435908,34.3949375 C17.1189549,34.4051458 16.4196779,34.4051458 15.8950421,34.3876458 C17.2964472,34.4649375 19.3999805,33.977125 21.864201,32.909625 C24.3754677,31.8209792 26.7712574,30.3415 28.5882369,28.8467083 C28.6267292,28.8182708 28.6837549,28.7891042 28.7279497,28.770875 C28.7386421,28.7912917 28.7536113,28.819 28.7643036,28.8394167 C28.742919,28.89775 28.7136933,28.9757708 28.6823292,29.0297292" id="Fill-35" fill="#407BA4"></path>
                    <path d="M1.21200872,15.5340208 C0.951829231,15.3998542 0.745824103,15.2285 0.596844615,15.0214167 C0.387275385,14.7290208 0.299598462,14.3615208 0.335239487,13.9254792 C0.363039487,13.7694375 0.379434359,13.6112083 0.411511282,13.456625 C0.399393333,13.5054792 0.387988205,13.552875 0.378008718,13.6002708 L0.258967692,14.2193333 L0.123531795,15.1490208 L0.123531795,15.14975 C0.107849744,15.276625 0.102147179,15.3976667 0.106424103,15.5136042 C0.108562564,15.5712083 0.119967692,15.6229792 0.127095897,15.6783958 C0.13066,15.7090208 0.133511282,15.740375 0.138501026,15.771 C0.162024103,15.90225 0.194101026,16.0283958 0.245424103,16.1443333 C0.254690769,16.1640208 0.268234359,16.1815208 0.278213846,16.2012083 C0.291044615,16.2267292 0.306013846,16.2500625 0.320270256,16.2748542 C0.345931795,16.3200625 0.36731641,16.3674583 0.397967692,16.40975 C0.398680513,16.4002708 0.400818974,16.3907917 0.402244615,16.3813125 C0.560490769,16.6095417 0.767921538,16.8071458 1.0516241,16.9544375 C1.19703949,16.9770417 1.27259846,16.7101667 1.31037795,16.4819375 C1.31180359,16.4739167 1.42371641,15.7279792 1.21200872,15.5340208" id="Fill-37" fill="#E8B420"></path>
                    <g id="Group-41" transform="translate(0.000000, 2.318750)" fill="#D27C40">
                        <path d="M27.211139,1.34378125 L26.5360979,0.830447917 L25.9608518,0.433052083 C26.2580979,0.657635417 26.8126723,1.07544792 26.7642005,2.06128125 C26.4869133,7.71451042 5.08590308,21.1851354 0.312144103,15.9591979 C0.107564615,15.6740937 -7.12820513e-05,15.3277396 -7.12820513e-05,14.9223229 C0.00349282051,15.3525312 0.0391338462,15.9096146 0.0640825641,16.3609687 C0.0640825641,16.3660729 0.0647953846,16.3719062 0.0647953846,16.3777396 C0.0669338462,16.4112813 0.0690723077,16.4484687 0.0704979487,16.4812813 C0.0712107692,16.4885729 0.0740620513,16.4944062 0.0754876923,16.5024271 C0.0783389744,16.5337813 0.0868928205,16.5622187 0.0918825641,16.5928438 C0.0897441026,16.5819062 0.0890312821,16.5702396 0.087605641,16.5593021 C0.0933082051,16.6059688 0.107564615,16.6482604 0.116118462,16.6934688 C0.109703077,16.6591979 0.0968723077,16.6285729 0.0918825641,16.5928438 C0.106138974,16.6927396 0.12752359,16.7882604 0.156749231,16.8794063 C0.167441538,16.9136771 0.174569744,16.9494062 0.187400513,16.9829479 C0.193815897,16.9997187 0.199518462,17.0164896 0.206646667,17.0332604 C0.201656923,17.0215938 0.199518462,17.0084688 0.194528718,16.9968021 C0.217338974,17.0544062 0.252267179,17.1054479 0.28078,17.1601354 C0.257969744,17.1163854 0.225892821,17.0784687 0.206646667,17.0332604 C0.255831282,17.1491979 0.313569744,17.2600312 0.386990256,17.3621146 C0.386277436,17.3548229 0.386277436,17.3475312 0.385564615,17.3402396 C1.60306205,19.0771146 6.23995949,18.6943021 12.2654313,16.0824271 C19.8897595,12.7778437 26.8347697,7.16763542 27.7778313,3.55096875 C28.0351595,2.56294792 27.8184621,1.82576042 27.211139,1.34378125" id="Fill-39"></path>
                    </g>
                    <path d="M29.7737287,6.21330208 C29.4750569,5.85017708 29.0473646,5.39226042 28.7330108,5.04298958 C29.2291338,5.54173958 29.3880928,6.25559375 29.1471595,7.18090625 C28.1670313,10.9404896 20.9475851,16.7723646 13.0231595,20.2074688 C6.80807744,22.9010104 2.00509282,23.3202813 0.694215897,21.5637188 C0.689226154,21.5571563 0.681385128,21.5462188 0.674256923,21.5360104 C0.533831282,21.3398646 0.435462051,21.1174688 0.382713333,20.8688229 C0.484646667,21.3318438 0.659287692,21.9392396 0.78118,22.3971563 C0.859590256,22.6764271 0.908062051,22.7325729 1.01926205,22.8871563 L1.02995436,22.9010104 C1.03209282,22.9039271 1.03280564,22.9061146 1.03565692,22.9090313 L1.0349441,22.9090313 L1.03993385,22.9155938 C1.04064667,22.9163229 1.04135949,22.9170521 1.04135949,22.9177813 L1.05490308,22.9360104 C1.05419026,22.9338229 1.05419026,22.9316354 1.05347744,22.9294479 C2.38573897,24.7275729 7.28638,24.3024688 13.6311954,21.5520521 C21.71458,18.0484063 29.0787287,12.0998646 30.0788159,8.26444792 C30.30478,7.39819792 30.185739,6.71351042 29.7737287,6.21330208" id="Fill-42" fill="#407BA4"></path>
                    <path d="M12.4452759,0.589166667 C12.2050554,0.655520833 12.1109631,0.681770833 11.8921272,0.753229167 C11.6718656,0.819583333 11.5863272,0.849479167 11.3546605,0.931145833 C11.1115887,1.01791667 10.9782913,1.0675 10.8129169,1.133125 C10.6347118,1.20166667 10.5113938,1.2534375 10.2611938,1.35989583 C10.0758605,1.44010417 10.0045785,1.47145833 9.83278872,1.55385417 C9.66171179,1.631875 9.59755795,1.66395833 9.42291692,1.75145833 C9.25469128,1.8353125 9.19338872,1.8659375 9.03514256,1.95197917 C8.87760923,2.03510417 8.81844513,2.06864583 8.65734769,2.15979167 C8.49696308,2.2509375 8.43779897,2.28447917 8.28739385,2.37708333 C8.1362759,2.46604167 8.07568615,2.5046875 7.9210041,2.60385417 C7.75990667,2.70666667 7.70074256,2.74385417 7.55105026,2.84739583 C7.39565538,2.9509375 7.33791692,2.99177083 7.17895795,3.10552083 C7.00788103,3.22802083 6.94515282,3.27322917 6.78761949,3.39572917 C6.63008615,3.513125 6.56450667,3.565625 6.39913231,3.6990625 C6.20952205,3.85291667 6.13966564,3.9090625 5.97072718,4.0578125 C5.80178872,4.20145833 5.72551692,4.27072917 5.54374769,4.4384375 C5.17593231,4.77895833 4.85944,5.11583333 4.60852718,5.438125 C4.3832759,5.72760417 4.21077333,6.0046875 4.09886051,6.26354167 C4.05609128,6.36270833 4.02258872,6.4596875 3.99835282,6.55229167 C3.98124513,6.61791667 3.96912718,6.680625 3.96128615,6.74041667 C3.93277333,6.97739583 3.97839385,7.17354167 4.08959385,7.32885417 C4.60924,8.05291667 6.56094256,7.88666667 9.09002974,6.79072917 C9.89195282,6.44291667 10.6760554,6.03458333 11.4074092,5.5934375 C11.5706451,5.45197917 11.455881,5.23614583 11.3995682,5.15083333 C11.3461067,5.06916667 11.0809374,4.76 10.8514092,4.8453125 C10.2697477,5.19604167 9.64602974,5.52052083 9.00876821,5.796875 C6.99790154,6.66822917 5.4468041,6.80020833 5.03336821,6.22489583 C4.92216821,6.0703125 4.89365538,5.86395833 4.96066051,5.60729167 C5.03051692,5.3396875 5.19874256,5.03927083 5.44537846,4.72208333 C5.75616821,4.32322917 6.19526564,3.89739583 6.71705026,3.47520833 C7.81550667,2.65927083 9.14277846,1.87833333 10.5270759,1.27822917 C10.7473374,1.18270833 10.955481,1.10541667 11.1664759,1.02447917 C13.1630862,0.355833333 14.4711118,0.561458333 14.1995272,1.6034375 C14.1161272,1.92208333 13.8930144,2.288125 13.5551374,2.699375 C13.7005528,2.8503125 14.47824,3.03041667 14.8189682,2.86197917 C15.2338297,2.37708333 15.5139682,1.91697917 15.6187528,1.5159375 C15.9302554,0.320104167 14.5901528,-0.0021875 12.4452759,0.589166667" id="Fill-44" fill="#407BA4"></path>
                    <path d="M7.73609846,8.82 C5.31963692,9.63885417 3.53045744,9.655625 2.98728821,8.89802083 C2.81122154,8.65302083 2.76560103,8.32708333 2.87109846,7.92020833 C2.96519077,7.59791667 3.09064718,7.34416667 3.23748821,7.10354167 C3.36864718,6.9059375 3.49481641,6.70541667 3.63951897,6.51729167 L3.63524205,6.523125 L3.40428821,6.829375 C3.27954462,7.0021875 3.13911897,7.2078125 3.00083179,7.41416667 C2.86397026,7.6146875 2.72924718,7.8159375 2.61804718,7.9909375 C2.51468821,8.17104167 2.38139077,8.413125 2.29300103,8.60125 C2.23098564,8.74416667 2.18251385,8.88270833 2.14758564,9.01760417 C2.12263692,9.11166667 2.10552923,9.20208333 2.09483692,9.288125 C2.08842154,9.47916667 2.08557026,9.61697917 2.11123179,9.74822917 C2.11265744,9.75697917 2.11622154,9.765 2.11836,9.77375 C2.14402154,9.88677083 2.18892923,9.99760417 2.27945744,10.1376042 C2.28373436,10.1427083 2.2887241,10.1507292 2.29371385,10.1558333 C2.85327795,10.82375 4.02159077,10.8325 4.90263692,10.7216667 C7.97560615,10.3373958 8.02193949,9.79416667 8.05187795,9.4346875 C8.05259077,9.428125 8.08680615,8.76822917 7.73609846,8.82" id="Fill-46" fill="#D27C40"></path>
                    <path d="M21.0704041,0.569552083 C20.9036041,0.52215625 20.7318144,0.472572917 20.4231631,0.406947917 C20.0268349,0.321635417 20.0111528,0.32309375 19.8593221,0.33403125 C20.6455631,0.62934375 20.9877169,1.23892708 20.7489221,2.15476042 C20.085999,4.69663542 15.2053169,8.63996875 9.84704513,10.9623646 C5.62500923,12.7925729 2.36599385,13.0696562 1.49849128,11.8614271 C1.26539897,11.5362187 1.20480923,11.1038229 1.34523487,10.5649687 C1.39370667,10.3790312 1.46498872,10.1858021 1.55694256,9.98601042 C1.36162974,10.4344479 1.1306759,11.0462187 0.956034872,11.5034062 C0.922532308,11.5974687 0.894019487,11.6893437 0.87049641,11.7797604 C0.839845128,11.8986146 0.817747692,12.0130937 0.804204103,12.1224687 C0.751455385,12.5555937 0.834855385,12.9143437 1.03872205,13.1979896 C1.98748615,14.5199687 5.55230154,14.2159062 10.1713785,12.2143437 C16.0329015,9.67392708 21.3719272,5.36017708 22.0968656,2.57986458 C22.3584708,1.57726042 21.98424,0.910802083 21.0704041,0.569552083" id="Fill-48" fill="#407BA4"></path>
                    <path d="M2.37305077,26.000625 C2.37305077,26.000625 2.30319436,25.9488542 2.09362513,25.484375 C2.09291231,25.4836458 2.09291231,25.4829167 2.09291231,25.4821875 C2.08435846,25.466875 2.07580462,25.4508333 2.06796359,25.4347917 C1.94322,25.1919792 1.82489179,24.9469792 1.71369179,24.6997917 C3.04167641,26.5489583 8.02999436,26.1245833 14.4938508,23.323125 C19.3488713,21.21875 23.9487021,18.2444792 27.1043585,15.360625 C27.6539431,15.0638542 27.8898867,15.5203125 27.9661585,15.7303125 C28.1301072,16.1853125 27.93622,16.4623958 27.8086251,16.6454167 C24.6472662,19.534375 20.0395944,22.51375 15.1753072,24.6217708 C9.12346103,27.2445833 4.37322513,27.78125 2.69239436,26.3265625 C2.69239436,26.3265625 2.46856872,26.1267708 2.37305077,26.000625" id="Fill-50" fill="#E8B420"></path>
                </g>
            </g>
        </g>
    </g>
</svg>