<?xml version="1.0" encoding="UTF-8"?>
<svg width="10px" height="10px" viewBox="0 0 10 10" version="1.1" xmlns="http://www.w3.org/2000/svg" xmlns:xlink="http://www.w3.org/1999/xlink">
    <!-- Generator: Sketch 51.2 (57519) - http://www.bohemiancoding.com/sketch -->
    <title>icon-collapse</title>
    <desc>Created with Sketch.</desc>
    <defs></defs>
    <g id="Content-field-data-(realistic)" stroke="none" stroke-width="1" fill="none" fill-rule="evenodd">
        <g id="Entry-data---real-content-expanded" transform="translate(-1134.000000, -613.000000)" fill="#417BA4" fill-rule="nonzero">
            <g id="Group-3" transform="translate(58.000000, 606.000000)">
                <g id="expand" transform="translate(1070.000000, 4.000000)">
                    <g id="icon-collapse" transform="translate(6.000000, 3.000000)">
                        <g id="Group-2" transform="translate(2.000000, 8.000000) scale(-1, -1) translate(-2.000000, -8.000000) translate(0.000000, 6.000000)">
                            <path d="M3.58269397,3.16538793 L0.834632244,3.16538793 L0.834632244,0.417306034 C0.834632244,0.186821224 0.647790843,0 0.417326211,0 C0.186841402,0 0,0.186821224 0,0.417306034 L0,3.58269397 C0,3.81317878 0.186841402,4 0.417306034,4 L3.58269397,4 C3.8131586,4 4,3.81317878 4,3.58269397 C4.00002018,3.35220916 3.8131586,3.16538793 3.58269397,3.16538793 Z" id="Shape"></path>
                            <path d="M3.89201366,0.107986697 C3.74804971,-0.0359955657 3.5145985,-0.0359955657 3.37061672,0.107986697 L0.107986336,3.37061016 C-0.0359954454,3.51459242 -0.0359954454,3.74802658 0.107986336,3.89200885 C0.179968314,3.96402672 0.274339931,4 0.368675896,4 C0.463029687,4 0.557383478,3.96400889 0.629383282,3.89200885 L3.89201366,0.62936756 C4.03599545,0.485403123 4.03599545,0.25196896 3.89201366,0.107986697 Z" id="Shape"></path>
                        </g>
                        <g id="Group" transform="translate(8.000000, 2.000000) scale(-1, -1) translate(-8.000000, -2.000000) translate(6.000000, 0.000000)">
                            <path d="M3.58269397,0 L0.417306034,0 C0.186821224,0 0,0.186841402 0,0.417306034 C0,0.647770665 0.186821224,0.834612067 0.417306034,0.834612067 L3.16538793,0.834612067 L3.16538793,3.58269397 C3.16538793,3.8131586 3.35220916,4 3.58269397,4 C3.81317878,4 4,3.8131586 4,3.58269397 L4,0.417306034 C4,0.186841402 3.81317878,0 3.58269397,0 Z" id="Shape"></path>
                            <path d="M3.89202631,0.107986216 C3.74804357,-0.0359954053 3.51460862,-0.0359954053 3.37062588,0.107986216 L0.107973688,3.37061296 C-0.0359912295,3.51459458 -0.0359912295,3.74802771 0.107973688,3.89200933 C0.179956147,3.96399123 0.274328395,4 0.368682817,4 C0.463019413,4 0.557391661,3.96400905 0.629391946,3.89200933 L3.89202631,0.629382581 C4.03599123,0.48540096 4.03599123,0.251967837 3.89202631,0.107986216 Z" id="Shape"></path>
                        </g>
                    </g>
                </g>
            </g>
        </g>
    </g>
</svg>