<?xml version="1.0" encoding="UTF-8"?>
<svg width="11px" height="13px" viewBox="0 0 11 13" version="1.1" xmlns="http://www.w3.org/2000/svg" xmlns:xlink="http://www.w3.org/1999/xlink">
    <!-- Generator: Sketch 51.2 (57519) - http://www.bohemiancoding.com/sketch -->
    <title>icon-copy</title>
    <desc>Created with Sketch.</desc>
    <defs></defs>
    <g id="Content-field-data-(realistic)" stroke="none" stroke-width="1" fill="none" fill-rule="evenodd">
        <g id="Entry-data----real-content---ID-raw" transform="translate(-1276.000000, -624.000000)" fill="#417BA4" fill-rule="nonzero" stroke="#417BA4" stroke-width="0.2">
            <g id="Content" transform="translate(56.000000, 619.000000)">
                <g id="copy-to-clipboard" transform="translate(1221.000000, 4.000000)">
                    <g id="icon-copy" transform="translate(4.500000, 7.500000) scale(-1, 1) translate(-4.500000, -7.500000) translate(0.000000, 2.000000)">
                        <path d="M5.89349112,2.2 L0.856508876,2.2 C0.38387574,2.2 0,2.57786051 0,3.04308761 L0,10.1569124 C0,10.6221395 0.38387574,11 0.856508876,11 L5.89349112,11 C6.36612426,11 6.75,10.6221395 6.75,10.1569124 L6.75,3.04308761 C6.74778107,2.57786051 6.36390533,2.2 5.89349112,2.2 Z M6.14866864,10.1547282 C6.14866864,10.2945148 6.03328402,10.4080913 5.89127219,10.4080913 L0.854289941,10.4080913 C0.712278107,10.4080913 0.596893491,10.2945148 0.596893491,10.1547282 L0.596893491,3.04308761 C0.596893491,2.90330107 0.712278107,2.7897245 0.854289941,2.7897245 L5.89127219,2.7897245 C6.03328402,2.7897245 6.14866864,2.90330107 6.14866864,3.04308761 L6.14866864,10.1547282 Z" id="Shape"></path>
                        <path d="M8.14349112,0 L3.10650888,0 C2.63387574,0 2.25,0.377860511 2.25,0.843087615 C2.25,1.00689998 2.38313609,1.13794986 2.54955621,1.13794986 C2.71597633,1.13794986 2.84911243,1.00689998 2.84911243,0.843087615 C2.84911243,0.703301067 2.96449704,0.589724497 3.10650888,0.589724497 L8.14349112,0.589724497 C8.28550296,0.589724497 8.40088757,0.703301067 8.40088757,0.843087615 L8.40088757,7.95691239 C8.40088757,8.09669893 8.28550296,8.2102755 8.14349112,8.2102755 C7.97707101,8.2102755 7.84393491,8.34132539 7.84393491,8.50513775 C7.84393491,8.66895011 7.97707101,8.8 8.14349112,8.8 C8.61612426,8.8 9,8.42213949 9,7.95691239 L9,0.843087615 C9,0.377860511 8.61612426,0 8.14349112,0 Z" id="Shape"></path>
                    </g>
                </g>
            </g>
        </g>
    </g>
</svg>